<svg version="1.1" id="Layer_1" xmlns="http://www.w3.org/2000/svg" xmlns:xlink="http://www.w3.org/1999/xlink" x="0px" y="0px"
	 viewBox="0 0 343.1 341.3" style="enable-background:new 0 0 343.1 341.3;" xml:space="preserve">
<style type="text/css">
	.st0{fill:#E0DEDF;}
	.st1{fill:#E83C3B;}
	.st2{fill:#F6FAFA;}
	.st3{fill:#717171;fill-opacity:0.1494;}
	.st4{fill:#F6F9F9;}
	.st5{fill:#17081E;}
	.st6{fill:#220D2A;}
	.st7{fill:#A09999;fill-opacity:0.8201;}
	.st8{fill:#D5D0D6;}
</style>
<g id="Vector_layer_39_">
	<path class="st0" d="M0,170.5C0,76.5,76.9,0,171.5,0s171.5,76.5,171.5,170.5S266.1,341,171.5,341S0,264.5,0,170.5z"/>
</g>
<g id="Vector_layer_38_">
	<path class="st1" d="M179.3,320.4c-2.4,0-4.8-0.1-7.2-0.2c-2.4-0.1-4.8-0.2-7.2-0.4c-1.3-0.1-2.7-0.3-4-0.4
		c-1.1-0.1-2.3-0.2-3.5-0.3c-1.4-0.1-2.8-0.2-4.2-0.3c-0.6,0-1.1-0.1-1.7-0.1c-0.8-0.1-1.6-0.1-2.3-0.3c-1.4-0.2-2.8-0.4-4.2-0.7
		c-1.5-0.3-3.1-0.5-4.6-0.8c-1.2-0.2-2.5-0.4-3.7-0.5c-0.8-0.1-1.6-0.2-2.4-0.3c-0.8-0.1-1.5-0.3-2.2-0.4c-0.5-0.1-1.1-0.2-1.6-0.3
		c-0.7-0.2-1.4-0.3-2.1-0.5c-1.4-0.4-2.8-0.7-4.2-1.1c-2.7-0.8-5.4-1.6-8.1-2.4c-2.7-0.8-5.4-1.6-8-2.4c-1.4-0.5-2.8-0.9-4.2-1.4
		c-0.6-0.2-1.2-0.4-1.8-0.6c-0.8-0.3-1.6-0.6-2.5-0.9c-0.5-0.2-1-0.4-1.5-0.6c-0.6-0.3-1.2-0.5-1.8-0.8c-0.7-0.4-1.4-0.7-2.2-1.1
		c-0.7-0.4-1.4-0.8-2-1.1c-2.5-1.4-4.9-2.9-7.3-4.4c-2.3-1.5-4.6-3.2-6.9-4.8c-1.1-0.8-2.2-1.5-3.2-2.3c-0.5-0.4-1-0.7-1.5-1.1
		c-0.6-0.4-1.2-0.9-1.8-1.3c-0.6-0.5-1.3-1-1.9-1.6c-0.6-0.5-1.1-1-1.6-1.4c-1.1-0.9-2.1-1.9-3.1-2.9c-0.5-0.5-0.9-0.9-1.4-1.4
		c-0.4-0.4-0.9-0.9-1.3-1.3c-0.6-0.6-1.2-1.2-1.7-1.8c-0.5-0.5-0.9-1-1.3-1.5c-0.7-0.8-1.3-1.5-1.9-2.3c-0.9-1.2-1.8-2.5-2.4-3.8
		c-0.4-0.7-0.8-1.5-1.2-2.2c-0.3-0.7-0.6-1.4-0.9-2.1c-0.5-1.2-1-2.4-1.4-3.6c-0.6-1.4-1.1-2.8-1.7-4.2c-0.5-1.3-1-2.7-1.5-4
		c-0.2-0.6-0.4-1.2-0.6-1.9c-0.2-0.7-0.3-1.4-0.5-2.1c-0.6-2.7-0.7-5.5-0.6-8.2c0-0.7,0-1.4,0.1-2.1c0-0.4,0.1-0.8,0.1-1.1
		c0-0.3,0-0.7,0.1-1c0.2-1.4,0.4-2.7,0.8-4c0.2-0.6,0.3-1.3,0.6-1.9c0.1-0.4,0.3-0.8,0.4-1.2c0.1-0.3,0.2-0.6,0.3-0.9
		c0.3-0.6,0.5-1.3,0.8-1.9c0.2-0.4,0.3-0.7,0.5-1c0.1-0.3,0.3-0.6,0.4-0.8c0.7-1.2,1.4-2.5,2.1-3.7c0.7-1.2,1.4-2.3,2.1-3.5
		c0.1-0.2,0.2-0.4,0.3-0.6c0,0,0,0,0,0c0.4-0.9,0.8-1.8,1.2-2.7c0.5-1.1,0.9-2.2,1.3-3.3c0.8-2,1.5-4.1,2.2-6.1c0,0.1,0,0.1-0.1,0.2
		c0.3-0.9,0.6-1.9,0.8-2.9c0.1-0.5,0.2-1,0.2-1.5c0.1-2.2,0-4.3-0.1-6.5c-0.2-1.9-0.4-3.8-0.7-5.7c-0.1-0.6-0.3-1.2-0.4-1.8
		c-0.1-0.6-0.3-1.3-0.4-1.9c-0.2-1.3-0.3-2.6-0.3-4c0-2.8,0.2-5.6,0.8-8.4c0.6-2.7,1.4-5.4,2.5-7.9c0.5-1.2,1.2-2.4,1.9-3.6
		c0.7-1.1,1.5-2.1,2.3-3.2c0.3-0.4,0.6-0.8,0.9-1.2c0.3-0.3,0.6-0.6,0.8-1c0.2-0.5,0.8-0.9,1.4-0.8c0.5,0.1,0.8,0.4,1,0.7
		c0.1-0.1,0.2-0.1,0.3-0.2c1.6-1,3.2-1.9,4.8-2.8c1.5-0.9,3.1-1.6,4.8-2.2c0.9-0.3,1.7-0.5,2.6-0.7c0.9-0.2,1.8-0.3,2.7-0.4
		c1.7-0.4,3.4-0.9,5-1.5c0.6-0.2,1.2-0.5,1.9-0.8c0.6-0.2,1.1-0.5,1.7-0.8c1.8-0.9,3.5-1.8,5.2-2.7c1-0.6,2-1.1,3-1.7
		c0.8-0.5,1.6-1,2.4-1.5c1.1-0.7,2.1-1.5,3.2-2.2c1.2-0.9,2.4-1.8,3.6-2.6c2.3-1.7,4.6-3.5,6.9-5.2c1.2-0.9,2.4-1.8,3.6-2.7
		c1.2-0.9,2.3-1.8,3.5-2.7c1.1-0.9,2.2-1.7,3.3-2.6c0.6-0.5,1.2-1,1.8-1.4c1.6-1.2,3.1-2.3,4.9-3.2c1.4-0.8,2.8-1.4,4.2-2
		c0.8-0.3,1.7-0.6,2.5-1c1.2-0.5,2.5-0.9,3.8-1.3c1.2-0.4,2.4-0.9,3.6-1.2c0.7-0.2,1.4-0.4,2.1-0.6c0.3-0.1,0.6-0.1,0.9-0.2
		c0.5-0.1,1-0.2,1.5-0.3c0.6-0.1,1.2-0.2,1.9-0.3c0.7-0.1,1.4-0.2,2.1-0.3c0.6-0.1,1.2-0.1,1.9-0.2c0.7-0.1,1.5-0.2,2.2-0.2
		c0.7,0,1.4-0.1,2.1-0.1c0.8,0,1.5,0,2.3,0c1.4,0,2.9,0.1,4.4,0.2c2.7,0.2,5.3,0.5,8,0.9c2.7,0.4,5.4,1.1,8.1,1.8
		c2.6,0.7,5.2,1.6,7.8,2.5c2.6,0.9,5.1,2,7.7,3c3.3,1.3,6.4,2.9,9.5,4.5c1.7,0.8,3.4,1.7,5.1,2.6c0.7,0.4,1.4,0.8,2.2,1.2
		c0.9,0.5,1.8,0.9,2.6,1.4c-0.1,0-0.1-0.1-0.1-0.1c0.6,0.3,1.2,0.6,1.9,0.8c0.8,0.3,1.6,0.6,2.4,0.9c1.4,0.5,2.9,1.1,4.2,1.8
		c1.3,0.6,2.5,1.2,3.7,1.9c1.3,0.7,2.6,1.4,3.9,2.1c1.9,0.9,3.8,1.8,5.6,2.8c0.9,0.5,1.8,0.9,2.6,1.4c0.9,0.5,1.9,1,2.9,1.5
		c0.9,0.5,1.9,1,2.8,1.5c0.9,0.5,1.9,1.1,2.8,1.6c1,0.6,1.9,1.1,2.9,1.7c0.9,0.5,1.9,1,2.8,1.5c0.6,0.3,1.2,0.6,1.9,0.9
		c0.7,0.3,1.4,0.6,2.1,0.9c0.6,0.2,1.3,0.4,1.9,0.6c0.7,0.2,1.5,0.3,2.2,0.5c3.8,0.8,7.7,1.4,11.4,2.5c1.9,0.5,3.7,1.4,5.3,2.4
		c0.8,0.5,1.5,1,2.1,1.6c0.7,0.7,1.4,1.5,2,2.4c0-0.1-0.1-0.1-0.1-0.1c0.6,0.8,1.1,1.7,1.5,2.6c0.4,0.9,0.9,1.7,1.1,2.7
		c0.5,2.1,0.4,4.3,0.4,6.5c0,1.9,0,3.8-0.2,5.7c-0.1,1.1-0.4,2.2-0.5,3.4c-0.2,1.1-0.3,2.3-0.4,3.4c0,0.5,0,1,0,1.4
		c0,0.5,0,1,0.1,1.5c0-0.1,0-0.1,0-0.2c0.1,0.9,0.2,1.8,0.4,2.8c0.2,0.8,0.4,1.6,0.7,2.4c0.2,0.5,0.4,0.9,0.6,1.4
		c0.5,1,1.1,1.9,1.7,2.8c1.5,2.2,3.2,4.3,4.9,6.4c0.8,1,1.6,2,2.5,3c0.9,1.1,1.8,2.1,2.6,3.1c0.8,1,1.5,2,2.2,3
		c0.4,0.6,0.8,1.2,1.2,1.8c0.7,1.1,1.2,2.3,1.7,3.5c0.8,2,1.4,4.1,1.5,6.2c0,1.2,0,2.3-0.1,3.5c0,0.7-0.1,1.5-0.2,2.2
		c-0.1,1.3-0.2,2.6-0.5,3.9c-0.3,1.3-0.7,2.6-1,3.9c-0.2,0.6-0.4,1.2-0.6,1.9c-0.1,0.3-0.2,0.6-0.4,1s-0.2,0.6-0.4,0.9
		c-0.5,1.2-1.1,2.5-1.6,3.7c-1.2,2.7-2.4,5.3-3.6,8c-0.6,1.3-1.2,2.6-1.8,3.8c-0.6,1.3-1.3,2.5-2,3.8c-1.3,2.4-2.8,4.8-4.2,7.2
		c-1.4,2.4-2.7,4.8-4.1,7.2c-1.4,2.4-3,4.6-4.8,6.7c-0.9,1.1-1.8,2.2-2.7,3.3c-0.9,1.1-1.7,2.2-2.6,3.2c-0.9,1.1-1.8,2.1-2.8,3.2
		c-1,1.1-2.1,2.1-3.1,3.2c-1.9,2-3.7,4-5.7,6c-1.1,1-2.1,2-3.3,3c-1,0.9-2.1,1.7-3.2,2.5c-1.1,0.8-2.2,1.5-3.4,2.3
		c-0.5,0.3-1.1,0.6-1.6,0.9c-0.6,0.3-1.2,0.7-1.8,1c-1.4,0.7-2.8,1.5-4.3,2.1c-1.9,0.9-4,1.4-6,1.9c-1.4,0.3-2.7,0.6-4.1,0.9
		s-2.8,0.6-4.1,0.9c-2.7,0.5-5.4,0.9-8.1,1.4c-2.8,0.5-5.6,0.8-8.5,1c-2.8,0.2-5.6,0.5-8.4,0.7c-2.9,0.2-5.9,0.5-8.9,0.7
		c-1.3,0.1-2.6,0.2-3.9,0.3c-1.4,0.1-2.8,0.2-4.2,0.2c-2.8,0.1-5.6,0.1-8.5,0.1c-1.7,0-3.4,0.1-5.1,0.1
		C180.7,320.4,180,320.4,179.3,320.4z"/>
</g>
<g id="Vector_layer_37_">
	<path class="st2" d="M172.8,274.4c-2.8-0.1-5.6-0.2-8.4-0.6c-2.8-0.4-5.6-0.7-8.4-1.2c-2.8-0.5-5.5-1-8.2-1.9
		c-3.5-1.2-6.9-2.8-10.1-4.6c-1.5-0.9-3-1.9-4.3-3.1c-0.6-0.5-1.2-1-1.7-1.6c-0.3-0.4-0.6-0.8-0.8-1.2c-0.2-0.5-0.3-0.9-0.4-1.4
		c-0.1-0.8,0.1-1.5,0.4-2.2c0.1-0.3,0.2-0.6,0.3-0.9l0,0c0,0,0,0,0,0l0,0c0,0,0,0,0,0c0,0,0,0,0,0s0,0,0,0s0,0,0,0c0,0,0,0,0,0v0
		c0,0,0,0,0,0l0,0c0,0,0-0.1,0-0.1c0,0,0-0.1,0.1-0.1c0,0,0,0,0,0c1.1-3.1,2.1-6.3,2.8-9.6c0.7-3.7,1-7.4,1.4-11.1
		c0.2-1.8,0.4-3.6,0.5-5.4c0.1-1.9,0.3-3.7,0.4-5.6c0.2-3.4,0.2-6.7,0.1-10.1c0-3.7-0.1-7.4-0.3-11.1c-0.1-1.4-0.3-2.8-0.5-4.2
		c-0.2-1.4-0.4-2.7-0.6-4.1c-0.4-2.9-0.9-5.7-1.4-8.6c-0.1-0.4-0.2-0.8-0.3-1.2c0,0.1,0.1,0.2,0.1,0.3c-0.1-0.4-0.3-0.8-0.3-1.2
		c0-1.4,1.2-2.7,2.7-2.7c1.2,0,2.2,0.9,2.6,2v0c0,0,0,0,0,0l0,0l0,0l0,0l0,0c0,0,0,0,0,0.1c0,0.1,0.1,0.2,0.1,0.3
		c0.8-1.7,1.8-3.2,2.9-4.7c2.4-3.1,5.5-5.6,8.8-7.6c2-1.2,4.1-2.2,6.3-3.1c0.5-0.2,1-0.4,1.5-0.6c0.8-0.3,1.6-0.7,2.5-1
		c3.3-1.2,6.7-2.1,10.2-2.4c3-0.3,6.1-0.4,9.1-0.4c2.8,0,5.7,0,8.6,0.3c1.5,0.1,2.9,0.3,4.4,0.6c1,0.2,2,0.4,3,0.8
		c1.2,0.4,2.3,1,3.4,1.6c1,0.5,1.9,1.2,2.7,1.9c0.9,0.8,1.6,1.8,2.3,2.8c0.9,1.2,1.6,2.5,2.2,3.9c0.6,1.4,1.1,2.7,1.6,4.1
		c0.4,1.4,0.7,2.8,1,4.2c0.3,1.4,0.3,2.9,0.4,4.3c0.1,1.4,0.1,2.8,0.1,4.2c0,1.4-0.1,2.7-0.2,4c-0.1,1.4-0.1,2.8-0.1,4.1
		c-0.2,5.6-0.3,11.2-0.3,16.8c0,3,0.1,6.1,0.2,9.1c0.1,2.9,0.2,5.8,0.3,8.7c0.4,4.4,0.8,8.8,1.7,13.1c0.1,0.4,0.2,0.9,0.3,1.4
		c0.1,0.2,0.1,0.4,0.1,0.6c0.3,1.3,0.6,2.6,0.9,3.9c0.1,0.6,0.2,1.1,0.2,1.7c0.1,1.1,0.1,2.2,0.1,3.4c0,0.3-0.1,0.7-0.1,1
		c-0.1,0.6-0.2,1.3-0.4,1.9c0,0.1-0.1,0.2-0.1,0.2c-0.1,0.3-0.3,0.6-0.5,0.9c-0.1,0.1-0.2,0.2-0.2,0.3c-0.2,0.2-0.4,0.4-0.5,0.6
		c-0.1,0.1-0.3,0.2-0.4,0.4c-2.4,1.4-5,2.5-7.6,3.8c-2,1-4.1,1.8-6.1,2.7c-2.4,0.8-4.9,1.4-7.4,1.9c-2.7,0.5-5.3,1.1-8.1,1.4
		c-2.5,0.2-4.9,0.4-7.4,0.4C173.5,274.4,173.1,274.4,172.8,274.4z"/>
</g>
<g id="Vector_layer_36_">
	<path class="st3" d="M134.5,242.7c0.2,0.2,0.4,0.3,0.7,0.2c-0.2,0.1-0.4,0.2-0.6,0.3c-0.1,0-0.2,0.1-0.2,0.1
		C134.4,243.1,134.5,242.9,134.5,242.7z"/>
	<path class="st3" d="M138.4,237.8C138.4,237.8,138.4,237.8,138.4,237.8C138.4,237.8,138.4,237.8,138.4,237.8L138.4,237.8
		C138.4,237.8,138.4,237.8,138.4,237.8C138.4,237.8,138.4,237.8,138.4,237.8L138.4,237.8c-0.1,0-0.1,0-0.1,0
		C138.3,237.8,138.4,237.8,138.4,237.8c-0.4-0.1-0.7-0.1-1.1-0.2c0.6,0,1.3,0,2,0.1c-0.2,0.1-0.5,0.1-0.7,0.2
		C138.6,237.8,138.5,237.8,138.4,237.8z"/>
	<path class="st3" d="M163.1,216.5c-0.2,0-0.5,0-0.7,0c-1.2-0.1-2.4-0.3-3.7-0.4c-1.2-0.1-2.3-0.2-3.5-0.3c-0.7-0.1-1.3-0.2-2-0.3
		c-1.2-0.3-2.4-0.6-3.7-1c-0.9-0.3-1.9-0.6-2.8-0.9c-0.9-0.3-1.8-0.6-2.6-0.9c-1.3-0.6-2.5-1.2-3.8-1.8c-1.4-0.7-2.8-1.2-4.2-1.9
		c0.1,0.1,0.2,0.1,0.3,0.1c-0.2-0.1-0.5-0.2-0.7-0.3c0-0.1,0-0.1,0-0.1c0,0,0,0,0,0c0-1-0.1-2.1-0.2-3.1c-0.1-0.9-0.1-1.8-0.2-2.8
		c-0.1-0.9-0.2-1.8-0.3-2.6c-0.1-0.9-0.2-1.9-0.3-2.8c0,0,0,0,0-0.1c0,0,0,0,0,0.1c0,0,0,0,0,0.1c0-0.2,0-0.4-0.1-0.7
		c0,0,0,0.1,0,0.1c-0.1-0.6-0.1-1.1-0.2-1.7c-0.1-0.5-0.1-0.9-0.2-1.4c0,0,0,0.1,0,0.1c-0.1-0.5-0.1-1-0.2-1.4s-0.2-1-0.3-1.4
		c-0.2-1-0.5-2-0.8-2.9c-0.2-0.5-0.4-1-0.6-1.4c-0.2-0.5-0.4-1-0.6-1.4c-0.2-0.5-0.5-1-0.9-1.4c-0.1-0.2-0.3-0.4-0.4-0.6
		c-0.5-1.2-0.9-2.5-1.3-3.7c-0.3-1-0.5-1.9-0.8-2.9c0,0,0,0,0-0.1c0.4-0.2,0.9-0.4,1.3-0.6c3.1-1.5,6.3-2.6,9.5-3.6
		c3-0.9,6.3-1.4,9.4-1.9c3.1-0.5,6.4-0.7,9.6-0.6c4.8,0.2,9.6,0.2,14.4,0.3c6.2,0.1,12.2,1.5,18.3,2.1c2.8,0.1,5.6,0.2,8.4,0.2
		c0.6-0.1,1.1-0.2,1.6-0.2c3.2-0.7,6.4-1.4,9.6-2.3c-0.3,2.5-0.3,5.1-0.4,7.6c-0.1,2.7-0.3,5.3-0.4,8c-0.1,1.2-0.1,2.4-0.1,3.6
		c0,0.2,0,0.4,0,0.5c0,0,0,0.1,0,0.1c-0.2,0.3-0.4,0.6-0.7,0.9c-0.8,0.9-1.6,1.8-2.4,2.7c-1.8,1.7-3.5,3.3-5.3,4.9
		c-0.7,0.6-1.3,1.2-2,1.8c-0.9,0.8-1.8,1.5-2.6,2.3c-1.3,1.2-2.6,2.3-3.9,3.5c-1.2,1-2.5,2-3.7,2.9c-1.7,1.2-3.3,2.4-5.1,3.5
		c0,0-0.1,0.1-0.1,0.1c-0.7,0.4-1.4,0.8-2.1,1.1c-0.3,0.1-0.6,0.2-0.9,0.4c-1.4,0.5-2.8,1-4.2,1.6c-0.5,0.1-1,0.3-1.5,0.4
		c-1.1,0.2-2.2,0.4-3.3,0.5c-1.4,0.1-2.8,0.1-4.1,0.2c0,0-0.1,0-0.1,0c-0.1,0-0.2,0-0.4,0c0,0-0.1,0-0.1,0c-0.1,0-0.1,0-0.2,0
		c-0.5,0-1,0-1.5,0C164.5,216.5,163.8,216.5,163.1,216.5z"/>
</g>
<g id="Vector_layer_35_">
	<path class="st4" d="M125.9,151.2l0-0.8c0.3-33.7,21.3-61.1,46.7-61.1c12.2,0,23.8,6.3,32.6,17.6c8.8,11.3,13.8,26.5,14.1,42.7
		c0,0.5,0,1.1,0,1.6c0,34.1-20.9,61.9-46.7,61.9C146.8,213.1,125.9,185.3,125.9,151.2z"/>
</g>
<g id="Vector_layer_34_">
	<path class="st1" d="M266.9,187.9c-1.1,0-2.1,0-3.2-0.1c-2.1-0.1-4.1-0.1-6.2-0.2c-2-0.1-4.1-0.3-6.1-0.4c0,0,0,0,0,0
		c-2.3-0.2-4.6-0.4-6.8-0.4c-1.2,0-2.4,0-3.6,0c-1.2,0-2.4-0.1-3.6-0.1c-1.2,0-2.5-0.1-3.7-0.1c-1.1,0-2.2-0.1-3.3-0.1
		c-2.2,0-4.4-0.1-6.6-0.1c-1.4,0-2.9,0-4.3,0c-1.1,0-2.1,0-3.1-0.1c-0.5-0.1-1.1-0.1-1.6-0.2c-0.2,0-0.4-0.1-0.6-0.1
		c-0.1,0-0.3-0.1-0.4-0.1c-0.1,0-0.1,0-0.2,0c0.5-0.8,0.9-1.6,1.3-2.3c0.2-0.4,0.4-0.9,0.6-1.3c0.1-0.3,0.2-0.6,0.3-0.9
		c0.3-1,0.7-2,1-3c0.3-0.9,0.6-1.8,0.9-2.7c0.5-1.4,0.9-2.8,1.2-4.3c0.2-0.7,0.4-1.3,0.5-2c0.1-0.5,0.2-1,0.2-1.4
		c0.2-1,0.3-1.9,0.4-2.9c0.1-0.8,0.1-1.6,0.2-2.4c0,0.1,0,0.2,0,0.3c0.1-0.7,0.1-1.4,0.1-2c0.1-1,0.3-2.1,0.4-3.1
		c0.1-0.9-0.3-1.7-0.9-2.3c0-0.9,0.1-1.7,0.1-2.6c0-0.7,0.1-1.5,0.1-2.2c0-0.7-0.1-1.4-0.1-2.2c0,0,0,0,0,0.1c0,0,0-0.1,0-0.1
		s0-0.1,0-0.1c0,0,0,0,0,0c-0.1-1.2-0.2-2.5-0.4-3.7c-0.1-0.8-0.3-1.6-0.5-2.4c-0.2,0-0.4-0.1-0.6-0.2c-0.2-0.1-0.4-0.4-0.6-0.6
		c-0.3-0.3-0.6-0.6-1-0.9c0,0,0,0,0,0c0,0,0,0-0.1-0.1c0,0,0,0,0,0c0,0,0,0-0.1-0.1c0,0,0,0,0,0c-0.2-0.2-0.4-0.3-0.6-0.5
		c-0.3-0.3-0.6-0.6-0.8-0.9c-0.1-0.1-0.1-0.2-0.2-0.2c-0.1-0.1-0.3-0.3-0.4-0.5c-0.2-0.2-0.4-0.5-0.6-0.7c-0.4-0.5-0.9-0.9-1.4-1.4
		c-0.5-0.5-1-1-1.4-1.5c-0.5-0.5-0.9-1.1-1.4-1.6c-0.1-0.1-0.2-0.2-0.3-0.4c-0.6-0.7-1.3-1.4-1.9-2.2l0,0c0,0-0.1-0.1-0.1-0.1
		c0,0,0,0,0,0c-0.2-0.2-0.4-0.4-0.6-0.6l0,0c-0.5-0.6-1-1.1-1.5-1.7c-0.5-0.6-1-1.2-1.4-1.9c-1-1.3-1.9-2.8-2.8-4.2c0,0,0,0,0,0
		c0,0,0-0.1-0.1-0.1c0,0,0,0,0-0.1c0,0,0,0,0,0c-0.5-0.8-1.1-1.5-1.6-2.3c-0.5-0.7-0.9-1.5-1.3-2.3c-0.9-1.7-1.9-3.4-2.7-5.2
		c0,0.1,0.1,0.1,0.1,0.2c-0.1-0.1-0.1-0.2-0.1-0.3c-0.3,0.3-0.6,0.6-1,0.9c-1.7,1.6-3.4,3.1-5.2,4.6c-1,0.8-2,1.6-3,2.3
		c-0.4,0.3-0.9,0.6-1.4,0.9c-0.5,0.3-1,0.6-1.6,1c-1,0.6-2,1.2-3.1,1.7c-1.1,0.6-2.3,1.1-3.5,1.7c-2.2,1.1-4.5,2.1-6.7,3.1
		c-1,0.4-2.1,0.9-3.1,1.3c-1.1,0.4-2.3,0.9-3.4,1.4c-1.1,0.4-2.1,0.8-3.2,1.2c-1,0.4-2.1,0.7-3.1,1.1c-0.6,0.2-1.1,0.4-1.7,0.6
		c-0.6,0.2-1.2,0.3-1.8,0.5c-0.4,0.1-0.9,0.2-1.4,0.3c-0.6,0.1-1.2,0.2-1.9,0.4c-1.2,0.3-2.5,0.6-3.7,1c-1.8,0.6-3.6,1.2-5.4,1.8
		c-1.8,0.6-3.6,1.3-5.4,2.1c-1.4,0.7-2.9,1.3-4.3,2c0,0,0,0,0,0c0,0,0,0-0.1,0c0,0,0,0,0,0h0c0,0,0,0,0,0l0,0
		c-1.9,0.9-3.7,1.8-5.5,2.9c-0.8,0.6-1.6,1.1-2.4,1.7c-0.4,0.3-0.9,0.6-1.3,0.9c-0.4,0.2-0.8,0.5-1.3,0.7c-0.4,0.3-0.9,0.6-1.3,0.9
		c-0.2,0.2-0.5,0.4-0.7,0.7c-0.2,0.2-0.3,0.4-0.5,0.7c-0.2,0.3-0.4,0.7-0.6,1c-0.3,0.6-0.6,1.2-0.8,1.9c-0.8,2.2-1.6,4.4-2.7,6.4
		c-0.3,0.5-0.7,1.1-1.1,1.4c-0.7,0.7-1.6,1.1-2.6,1.4c-0.4,0.1-0.7,0.2-1.1,0.3c-0.5,0.1-1.1,0.2-1.6,0.3c-0.6,0.1-1.2,0.1-1.9,0.2
		c-2.3,0.3-4.6,0.4-7,0.5c-1.1,0-2.2,0.1-3.3,0.1c-1.2,0-2.4,0-3.6,0c-1.1,0-2.3-0.2-3.4-0.3c-1.2-0.1-2.4-0.2-3.7-0.4
		c0.1,0,0.1,0,0.2,0c-2.2-0.1-4.4-0.2-6.6-0.3c-1.1-0.1-2.1-0.1-3.2-0.2c-0.5,0-1-0.1-1.6-0.1c-0.6,0-1.1-0.1-1.7-0.1
		c-0.6,0-1.2,0-1.8,0c-0.6,0-1.1,0-1.7,0c-0.5,0-1-0.1-1.6-0.1c-0.5,0-0.9-0.1-1.4-0.1c-0.7-0.1-1.2-0.7-1.2-1.4
		c0-0.4,0.1-0.8,0.3-1.2c0.3-0.6,0.7-1.2,1.1-1.8c0.8-1.1,1.6-2.1,2.5-3.1c1.5-1.7,3.1-3.3,4.6-4.9c0.8-0.8,1.6-1.6,2.4-2.4
		c0.8-0.8,1.7-1.6,2.6-2.3c1.9-1.5,3.8-3,5.7-4.4c0.9-0.7,1.8-1.4,2.7-2c0.9-0.7,1.8-1.4,2.7-2.1c0.6-0.5,1.2-1.1,1.9-1.6
		c-0.1,0-0.1,0.1-0.1,0.1c1.7-1.4,3.4-2.9,5.1-4.4c0.9-0.8,1.9-1.6,2.9-2.4c0.8-0.7,1.6-1.3,2.4-1.9c-0.1,0-0.1,0.1-0.1,0.1
		c0.4-0.4,0.9-0.7,1.3-1.1c-0.1,0-0.1,0.1-0.1,0.1c0.4-0.3,0.8-0.7,1.1-1c0.3-0.3,0.7-0.7,1-1c0.3-0.4,0.7-0.8,1-1.1
		c0.5-0.6,0.9-1.2,1.4-1.8c0.9-1.1,1.8-2.2,2.6-3.4c0.3-0.5,0.6-0.9,0.9-1.4c0.4-0.8,0.7-1.6,1-2.5c0.2-0.6,0.4-1.3,0.6-1.9
		c0.2-0.7,0.4-1.3,0.5-2c0.1-0.5,0.2-1,0.3-1.5c0.1-0.7,0.2-1.3,0.3-2c0.2-1.2,0.3-2.3,0.5-3.4c0.2-1.2,0.4-2.3,0.6-3.4
		c0.2-1.1,0.4-2.2,0.6-3.3c0.1-0.6,0.2-1.2,0.2-1.8c0.1-0.6,0.2-1.2,0.3-1.8c0.1-0.3,0.1-0.6,0.2-0.9c0.1-0.2,0.1-0.5,0.2-0.7
		c0.2-0.7,0.4-1.3,0.7-2c0.4-1.1,0.8-2.2,1.3-3.3c0.5-1.1,1.1-2.2,1.6-3.2c1.1-2,2.4-4,3.8-5.9c0.7-0.9,1.4-1.9,2.2-2.8
		c0.4-0.4,0.7-0.8,1.1-1.2c0.4-0.5,0.9-0.9,1.4-1.4c0.5-0.4,1-0.9,1.5-1.3c0.5-0.4,1-0.8,1.5-1.2c0.9-0.8,1.9-1.4,2.8-2.2
		c1.8-1.4,3.8-2.6,5.7-3.8c2.2-1.2,4.4-2.4,6.6-3.5c2.2-1.1,4.4-1.9,6.7-2.7c2.3-0.8,4.7-1.4,7.1-2c0.5-0.1,1-0.3,1.5-0.4
		c0.7-0.1,1.3-0.3,2-0.4c0.6-0.1,1.2-0.2,1.9-0.3c0.6-0.1,1.2-0.1,1.8-0.2c2.4-0.2,4.7-0.2,7.1-0.2c1.2,0,2.3,0,3.5,0.1
		c1.1,0,2.2,0.1,3.2,0.2c2.4,0.3,4.7,0.7,7.1,1.2c1.1,0.3,2.3,0.6,3.4,1c1.1,0.4,2.2,0.9,3.3,1.4c1.3,0.6,2.6,1.3,3.8,2.1
		c1.3,0.8,2.6,1.7,3.7,2.6c1.1,0.9,2.2,2,3.2,3c0.9,1,1.8,2.1,2.6,3.2c1.1,1.2,2.2,2.4,3.2,3.7c1,1.2,1.9,2.6,2.8,3.9
		c0.9,1.3,1.5,2.8,2.1,4.2c0.6,1.4,1.2,2.8,1.8,4.2c0.3,0.6,0.6,1.2,0.9,1.8c0.3,0.6,0.7,1.2,1,1.8c0.6,1.2,1.2,2.5,1.7,3.8
		c0.2,0.5,0.5,1,0.8,1.5c0.3,0.5,0.6,1,0.9,1.5c0.6,1.1,1.2,2.1,1.8,3.2c0.6,1,1.1,1.9,1.7,2.9c0.6,1.1,1.2,2.2,1.9,3.2
		c0.5,0.7,1,1.4,1.5,2.2c0.5,0.7,1.1,1.3,1.6,2l0,0c0,0,0,0,0,0c0,0,0,0,0,0c0,0,0,0,0,0.1l0,0c1.7,2,3.5,4.1,5.2,6.1
		c0.9,1.1,1.9,2.2,2.9,3.2c0.9,0.9,1.9,1.8,2.9,2.8c0.6,0.5,1.2,1,1.8,1.5c0.6,0.5,1.3,0.9,1.9,1.4c2,1.3,4,2.6,6,3.9
		c2,1.4,4.1,2.7,6,4.1c0.9,0.7,1.8,1.4,2.7,2.1c1,0.8,1.9,1.5,2.9,2.3c1,0.7,2,1.4,2.9,2.2c0.9,0.6,1.8,1.3,2.6,2
		c1.1,0.8,2.2,1.6,3.3,2.4c1,0.7,2,1.3,2.9,2c1,0.7,2,1.4,2.9,2.1c0.4,0.3,0.8,0.7,1.2,1.1s0.8,0.7,1.2,1.1c0.4,0.4,0.8,0.9,1.2,1.3
		c0.4,0.5,0.8,1,1.2,1.5c0.7,0.9,1.4,1.9,2,2.9c0.6,1,1.3,2,1.9,3c0.6,1,1.2,2.1,1.7,3.2c0.5,1,1,2,1.4,3.1c0.2,0.6,0.4,1.2,0.6,1.8
		c0.2,0.6,0.3,1.2,0.4,1.8c0.2,1.1,0.3,2.4,0.3,3.5c0,1.1-0.1,2.2-0.4,3.2c-0.1,0.5-0.3,1.1-0.5,1.6c-0.2,0.6-0.5,1.2-0.8,1.8
		c-1.4,2.8-3.1,5.6-5.7,7.5c-0.8,0.6-1.6,1.1-2.5,1.6c-1,0.5-2.1,0.9-3.1,1.2c-1.1,0.3-2.2,0.5-3.3,0.7c-2,0.3-4,0.4-6,0.4
		c-0.9,0-1.9,0.1-2.8,0.1C267.1,187.9,267,187.9,266.9,187.9z M70,157.7L70,157.7c0.5-0.5,1-1.1,1.6-1.7
		C71.1,156.6,70.6,157.1,70,157.7L70,157.7C70.1,157.7,70.1,157.6,70,157.7C70.1,157.7,70,157.7,70,157.7z"/>
</g>
<g id="Vector_layer_33_">
	<path class="st2" d="M131.1,166.1c-0.6,0-1.2-0.1-1.8-0.1c-0.3,0-0.7,0-1-0.1c-0.4,0-0.8-0.1-1.2-0.1c-0.8-0.2-1.5-0.8-2-1.4
		c-0.5-0.6-0.9-1.4-1.2-2.1c-0.2-0.4-0.3-0.7-0.5-1.1c-0.2-0.4-0.3-0.7-0.5-1l0,0c0,0,0,0,0-0.1v0c-0.3-0.5-0.5-1-0.8-1.5
		c-0.2-0.3-0.4-0.5-0.6-0.8c-0.2-0.3-0.5-0.5-0.8-0.8c-0.3-0.3-0.6-0.6-0.9-1c-0.3-0.4-0.5-0.7-0.8-1.1c-0.2-0.4-0.4-0.8-0.6-1.2
		c-0.3-0.8-0.5-1.7-0.7-2.6c-0.1-0.4-0.1-0.7,0-1.1c0-0.2,0-0.4,0.1-0.7c0.1-0.6,0.3-1.3,0.6-1.9c0.2-0.3,0.3-0.6,0.5-0.8
		c0.3-0.4,0.6-0.8,1-1.1c0.6-0.5,1.3-0.9,2.1-1.1c0.6-0.1,1.3-0.1,1.9,0c0.3,0.1,0.6,0.1,0.9,0.3c0.3,0.2,0.6,0.4,0.9,0.6
		c0.1,0.1,0.1,0.1,0.2,0.1c0.3-0.2,0.8-0.1,1,0.3c0.1,0.2,0.1,0.4,0,0.6l0,0l0,0l0,0c0,0,0-0.1,0-0.1c0,0,0,0.1,0,0.1
		c0.4,0.3,0.7,0.6,1,0.9c0.1,0.2,0.3,0.4,0.4,0.6c0.2,0.3,0.3,0.5,0.5,0.8c0.3,0.5,0.6,1.1,0.8,1.6c0.4,0.7,0.7,1.4,1,2.1
		c0.3,0.8,0.6,1.6,0.7,2.5c0.2,0.8,0.3,1.6,0.4,2.5c0.1,0.8,0.3,1.6,0.4,2.5c0.2,1.3,0.5,2.7,0.3,4.1c-0.1,0.4-0.1,0.7-0.3,1
		c-0.1,0.2-0.2,0.4-0.3,0.5c-0.1,0.1-0.2,0.3-0.4,0.4C131.5,166,131.3,166,131.1,166.1C131.1,166.1,131.1,166.1,131.1,166.1z"/>
</g>
<g id="Vector_layer_32_">
	<path class="st2" d="M213.9,162.8c0.6,0,1.1-0.1,1.7-0.1c0.3,0,0.6,0,0.9-0.1c0.4,0,0.8-0.1,1.1-0.1c0.8-0.2,1.4-0.8,1.9-1.3
		c0.5-0.6,0.8-1.3,1.1-2c0.1-0.3,0.3-0.7,0.4-1c0.1-0.3,0.3-0.6,0.5-1l0,0c0,0,0,0,0-0.1v0c0.2-0.5,0.5-1,0.8-1.4
		c0.2-0.2,0.4-0.5,0.5-0.7c0.2-0.2,0.5-0.5,0.7-0.7c0.3-0.3,0.6-0.6,0.8-0.9c0.3-0.3,0.5-0.7,0.7-1c0.2-0.3,0.4-0.7,0.5-1.1
		c0.3-0.8,0.5-1.6,0.6-2.4c0.1-0.3,0.1-0.7,0-1c0-0.2,0-0.4-0.1-0.6c-0.1-0.6-0.3-1.2-0.6-1.8c-0.1-0.3-0.3-0.5-0.5-0.8
		c-0.3-0.4-0.6-0.7-0.9-1c-0.6-0.4-1.3-0.9-2-1c-0.6-0.1-1.2-0.1-1.8,0c-0.3,0.1-0.6,0.1-0.8,0.2c-0.3,0.1-0.6,0.3-0.9,0.5
		c-0.1,0-0.1,0.1-0.2,0.1c-0.3-0.2-0.7-0.1-0.9,0.2c-0.1,0.2-0.1,0.4,0,0.6l0,0l0,0l0,0c0,0,0-0.1,0-0.1c0,0,0,0.1,0,0.1
		c-0.3,0.3-0.7,0.5-0.9,0.9c-0.1,0.2-0.3,0.4-0.4,0.6c-0.1,0.2-0.3,0.5-0.4,0.7c-0.3,0.5-0.5,1-0.8,1.5c-0.3,0.7-0.7,1.3-0.9,2
		c-0.3,0.8-0.5,1.5-0.7,2.3c-0.2,0.8-0.2,1.5-0.4,2.3c-0.1,0.8-0.3,1.6-0.4,2.3c-0.2,1.2-0.5,2.5-0.2,3.8c0.1,0.3,0.1,0.6,0.3,0.9
		c0.1,0.2,0.1,0.3,0.2,0.5c0.1,0.1,0.2,0.3,0.3,0.3C213.5,162.8,213.6,162.8,213.9,162.8C213.9,162.8,213.9,162.8,213.9,162.8z"/>
</g>
<g id="Vector_layer_31_">
	<path class="st1" d="M219.7,142.7c-0.2-0.1-0.4-0.3-0.3-0.5c0-0.1,0.1-0.2,0.2-0.3c0,0,0,0,0-0.1c0-0.1,0.1-0.1,0.1-0.2
		c0,0,0,0,0,0c0,0,0,0,0-0.1s0,0,0-0.1c0,0,0-0.1,0-0.1c-0.1-0.1-0.1-0.1-0.1-0.2c0-0.2,0-0.3,0.1-0.4c0.1-0.1,0.2-0.2,0.3-0.3
		c-0.1-0.1-0.2-0.3-0.1-0.4c0.1-0.2,0.2-0.3,0.3-0.5c0.1-0.1,0.2-0.2,0.2-0.4c0-0.1-0.1-0.1-0.1-0.2c0-0.2,0.1-0.5,0.4-0.5
		c0.1,0,0.2,0,0.3,0.1c0.1,0,0.1,0,0.2,0.1c0.1,0.1,0.1,0.1,0.2,0.2c0,0,0,0,0,0c0.1-0.1,0.3-0.1,0.4,0c0.2,0.1,0.2,0.3,0.2,0.5
		c0,0.1-0.1,0.2-0.2,0.3c0.1,0.1,0.1,0.2,0.1,0.3c0,0,0,0,0.1,0c0.1,0.1,0.2,0.2,0.1,0.4c0.1,0.2,0.1,0.4-0.1,0.5
		c-0.2,0.2-0.5,0.4-0.7,0.6c-0.1,0.1-0.1,0.1-0.2,0.2c-0.2,0.1-0.3,0.3-0.5,0.5c0,0,0,0,0,0c-0.1,0.1-0.1,0.1-0.1,0.1l0,0
		c0,0,0,0,0,0s0,0,0,0l0,0c-0.1,0.1-0.1,0.1-0.2,0.2c-0.1,0-0.1,0.1-0.2,0.1c-0.1,0.1-0.2,0.2-0.4,0.2
		C219.8,142.8,219.7,142.8,219.7,142.7z"/>
	<path class="st1" d="M218.8,142.9c-0.1-0.1-0.2-0.2-0.3-0.2c-0.1-0.1-0.1-0.1-0.2-0.2c-0.4-0.3-0.8-0.7-1.2-1
		c-0.3-0.3-0.6-0.7-0.9-1c-0.3-0.4-0.7-0.7-1-1.1c-0.3-0.4-0.6-0.7-0.9-1.1c-0.3-0.4-0.7-0.8-1-1.2c-0.6-0.8-1.2-1.6-1.8-2.4
		c-0.6-0.9-1.2-1.8-1.8-2.7c-0.3-0.4-0.5-0.8-0.8-1.3c-0.1-0.2-0.2-0.4-0.4-0.7c-0.1-0.3-0.3-0.5-0.4-0.8c-0.2-0.5-0.5-1-0.7-1.5
		c-0.1-0.2-0.2-0.4-0.3-0.7c-0.1-0.3-0.2-0.7-0.4-1c-0.2-0.5-0.3-1-0.5-1.5c-0.1-0.2-0.1-0.4-0.2-0.7c-0.1-0.3-0.2-0.6-0.3-0.9
		c0-0.2-0.1-0.4-0.1-0.5c0-0.1-0.1-0.2-0.1-0.4c0-0.2,0-0.4,0-0.7c0-0.1,0.1-0.3,0.2-0.4c0.1-0.1,0.3-0.2,0.4-0.2
		c0.4-0.1,0.9,0,1.3,0.2c0.6,0.3,1.2,0.7,1.7,1.1c0,0,0,0-0.1,0c0.7,0.5,1.3,1,1.9,1.5c0.5,0.4,1.1,0.9,1.6,1.3
		c0.5,0.4,0.9,0.8,1.4,1.1c0.8,0.6,1.6,1.2,2.4,1.8c0,0,0,0-0.1,0c0.2,0.2,0.5,0.3,0.7,0.5c0.2,0.1,0.4,0.2,0.6,0.4c0,0,0,0,0,0
		c0,0,0,0,0,0c0,0,0,0,0,0c0,0,0,0,0,0c0,0,0.1,0,0.1,0c0,0,0.1,0,0.1,0c0,0,0,0,0-0.1c0,0,0,0,0,0s0,0,0,0c0,0,0,0,0,0
		c0,0,0-0.1,0-0.1c0,0,0,0,0,0l0,0c0-0.1,0-0.1-0.1-0.2l0,0l0,0c0,0,0,0,0-0.1c0,0,0,0,0,0c-0.1-0.2-0.2-0.5-0.2-0.7
		c-0.1-0.3-0.2-0.6-0.3-0.9c-0.2-0.5-0.4-1-0.5-1.5v0c0,0,0,0,0,0c0,0,0,0,0,0c0,0,0,0,0,0c-0.1-0.2-0.1-0.4-0.1-0.6
		c0-0.1,0-0.2,0.1-0.3c0.1-0.1,0.1-0.1,0.2-0.2c0.1-0.1,0.3-0.2,0.5-0.2c0.3,0,0.5,0.1,0.8,0.2c0.1,0.1,0.3,0.1,0.4,0.2
		c0.2,0.1,0.4,0.2,0.5,0.3c0.4,0.2,0.9,0.5,1.3,0.8c0.3,0.2,0.6,0.4,0.9,0.5c0.6,0.3,1.1,0.7,1.6,1c0.7,0.4,1.4,0.8,2.1,1.2
		c0.3,0.2,0.7,0.4,1,0.5c0,0,0,0,0,0c0,0,0,0,0,0s0,0,0,0c0,0,0,0,0,0c0.1,0.1,0.3,0.1,0.4,0.1c0,0,0,0-0.1,0c0.1,0,0.1,0,0.1,0
		c0.1,0,0.3,0,0.4,0c0.2,0,0.4,0.2,0.4,0.5c0,0.2-0.2,0.4-0.5,0.4c-0.2,0-0.5,0-0.7-0.1c-0.3-0.1-0.7-0.2-1-0.4
		c-0.4-0.2-0.8-0.4-1.1-0.6c-0.6-0.4-1.2-0.7-1.8-1.1c-0.5-0.3-0.9-0.6-1.4-0.9c-0.8-0.5-1.5-1-2.3-1.4c0,0,0,0,0,0c0,0,0,0,0,0
		c0,0,0,0,0,0c0,0,0,0,0,0c-0.1-0.1-0.3-0.1-0.4-0.2c-0.2-0.1-0.4-0.2-0.5-0.3c0,0,0,0,0,0c0,0,0,0,0,0s0,0,0,0c0,0,0,0,0,0
		c0,0-0.1,0-0.1,0h0c0.1,0.1,0.1,0.3,0.1,0.4v0c0,0,0,0,0,0c0,0,0,0,0,0c0,0,0,0,0,0c0.1,0.3,0.2,0.5,0.2,0.8
		c0.1,0.4,0.3,0.7,0.4,1.1c0.1,0.1,0.1,0.3,0.1,0.4c0.1,0.1,0.1,0.3,0.2,0.4c0.1,0.2,0.1,0.4,0.1,0.6c0,0.3-0.2,0.6-0.4,0.8
		c-0.1,0.1-0.2,0.1-0.4,0.2c-0.1,0-0.1,0-0.2,0c-0.1,0-0.2,0-0.3-0.1c-0.2-0.1-0.3-0.2-0.5-0.3c-0.3-0.2-0.6-0.3-0.8-0.5
		c-0.5-0.3-0.9-0.6-1.3-1c-0.5-0.4-1-0.8-1.5-1.1c-0.8-0.6-1.6-1.3-2.5-1.9c-0.7-0.6-1.5-1.2-2.2-1.7c-0.1-0.1-0.3-0.2-0.4-0.3
		c0,0,0,0,0,0c-0.3-0.2-0.6-0.4-1-0.6h0c0,0,0,0,0,0c0,0,0,0,0,0c0,0,0,0,0,0c-0.2-0.1-0.4-0.2-0.6-0.3c0,0-0.1,0-0.1,0
		s-0.1,0-0.1,0c0,0,0,0-0.1,0s0,0-0.1,0c0,0,0,0,0,0c0,0.1,0,0.1,0,0.2c0,0,0,0.1,0,0.1c0,0,0,0,0-0.1c0.1,0.4,0.1,0.8,0.2,1.2
		c0.1,0.4,0.2,0.8,0.3,1.1c0.1,0.2,0.1,0.4,0.2,0.6c0.1,0.2,0.2,0.5,0.2,0.7c0.1,0.4,0.3,0.8,0.5,1.2c0.1,0.4,0.3,0.7,0.4,1.1l0,0
		c0.1,0.3,0.3,0.6,0.4,1c0.1,0.3,0.3,0.6,0.4,0.9c0.3,0.5,0.6,1.1,0.9,1.6c0,0,0,0,0,0c0,0,0,0,0,0c0,0,0,0,0,0c0,0,0,0,0,0
		c0.6,0.9,1.1,1.8,1.7,2.6c0.6,0.9,1.3,1.7,1.9,2.6c0,0,0,0,0,0c0.3,0.4,0.6,0.8,1,1.2c0.4,0.4,0.7,0.8,1,1.2c0.3,0.4,0.7,0.8,1,1.1
		c0.3,0.3,0.6,0.7,1,1c0,0,0,0,0,0c0.1,0.1,0.3,0.2,0.4,0.4c0-0.1,0.1-0.2,0.1-0.3c0.1-0.1,0.3-0.1,0.5-0.1c0.1,0.1,0.2,0.1,0.3,0.2
		c0.1,0.1,0.1,0.1,0.2,0.1c0.1,0.1,0.2,0.1,0.2,0.2c0.1,0.1,0.1,0.3,0.1,0.5c0,0,0,0.1-0.1,0.1c0,0,0,0,0,0c0,0.1,0.1,0.2,0.1,0.2
		c0.1,0.1,0.1,0.2,0.1,0.3c0,0,0,0,0,0.1c0,0.2-0.1,0.4-0.4,0.4c0,0-0.1,0-0.1,0C219.1,143.1,219,143,218.8,142.9z"/>
	<path class="st1" d="M123,141.6c-0.2,0.2,0,0,0.2,0s0.4,0.2,0.4,0.4s-0.2,0.4-0.4,0.4s-0.4-0.2-0.4-0.4L123,141.6z"/>
	<path class="st1" d="M125.6,144.3c-0.2-0.1-0.4-0.2-0.6-0.3c-0.3-0.2-0.7-0.5-1-0.7c-0.1-0.1-0.3-0.2-0.4-0.3
		c-0.1-0.1-0.3-0.2-0.4-0.3c0,0,0,0,0,0c0,0,0,0,0,0c0,0,0,0,0,0l0,0c-0.2-0.1-0.4-0.2-0.5-0.3c-0.2-0.1-0.4-0.3-0.7-0.4
		c0,0,0,0,0,0c-0.1-0.1-0.3-0.1-0.4-0.2c-0.2-0.1-0.4-0.1-0.5-0.1c-0.2,0-0.4-0.1-0.6-0.1c-0.2,0-0.5-0.1-0.8-0.1l0,0
		c-0.6,0-1.2,0-1.8,0c-0.6,0-1.3,0-1.9,0.1c-0.2,0-0.4-0.2-0.4-0.4c0-0.2,0.2-0.4,0.4-0.4c0.6,0,1.2,0,1.7-0.1c0.5,0,1,0,1.5,0
		c0.4,0,0.9,0,1.3,0.1c0.3,0.1,0.6,0.1,1,0.2c0.4,0.1,0.8,0.3,1.1,0.5c0.1-0.1,0.2-0.2,0.4-0.2c0.1,0,0.2,0.1,0.3,0.2
		c0.1,0.1,0.2,0.1,0.2,0.2c0.1,0.1,0.2,0.2,0.3,0.3s0.2,0.2,0.3,0.3c0,0,0,0,0.1,0.1c0.1,0.1,0.2,0.2,0.4,0.2c0,0,0,0,0,0
		c0,0,0,0,0,0c0,0,0,0,0,0c0,0,0,0,0,0c0.2,0.1,0.3,0.2,0.5,0.3c0.1,0.1,0.2,0.2,0.4,0.3c0.1,0,0.1,0.1,0.2,0.1c0,0,0,0,0,0
		c0.1,0.1,0.3,0.1,0.4,0.2c0,0,0,0-0.1,0c0.1,0.1,0.2,0.1,0.3,0.2c0.3,0.2,0.2,0.7-0.2,0.8c-0.1,0-0.1,0-0.2,0
		C125.9,144.4,125.8,144.4,125.6,144.3z"/>
</g>
<g id="Vector_layer_30_">
	<path class="st5" d="M192.8,144.3c0-2.6,1.5-4.6,3.4-4.6s3.4,2.1,3.4,4.6c0,2.6-1.5,4.6-3.4,4.6C194.3,149,192.8,146.9,192.8,144.3
		z"/>
</g>
<g id="Vector_layer_29_">
	<path class="st5" d="M155.2,145c0-2.6-1.5-4.7-3.4-4.7c-1.9,0-3.4,2.1-3.4,4.7s1.5,4.7,3.4,4.7C153.7,149.7,155.2,147.6,155.2,145z
		"/>
</g>
<g id="Vector_layer_28_">
	<path class="st5" d="M172.4,163.4c-0.1-0.2,0.1-0.5,0.3-0.5c0.1,0,0.2,0,0.3-0.1c0.2,0,0.4-0.1,0.5-0.1c0.2-0.1,0.3-0.1,0.5-0.2
		c0.1,0,0.1-0.1,0.1-0.1c0.1-0.1,0.3-0.2,0.4-0.3c0,0,0,0,0,0c0.2-0.2,0.4-0.4,0.7-0.6c0,0,0,0,0,0c0,0,0,0,0,0c0,0,0,0,0,0l0,0
		c0.1-0.1,0.2-0.3,0.3-0.4c0.1-0.2,0.2-0.3,0.3-0.5c0.1-0.1,0.1-0.2,0.2-0.4c0.1-0.2,0.1-0.4,0.1-0.5c0-0.1,0.1-0.3,0.1-0.4
		c0-0.1,0-0.3,0-0.4c0-0.2,0-0.5,0-0.7v0c0,0,0-0.1,0-0.1v0c0,0,0,0,0,0v0l0,0c0,0,0-0.1,0-0.1c0,0,0,0,0,0.1c0-0.2,0-0.5-0.1-0.7
		c0-0.3-0.1-0.5-0.1-0.8c-0.2-0.9-0.4-1.8-0.5-2.7c-0.1-0.5-0.1-1-0.2-1.5c-0.1-0.5-0.1-0.9-0.1-1.4c-0.1-0.9-0.1-1.9-0.1-2.9
		c0-0.9,0-1.9,0.1-2.8l0,0c0-0.1,0-0.2,0-0.3c0,0,0,0,0,0c0-0.5,0.1-1,0.1-1.4c0,0,0,0,0,0c0-0.1,0-0.2,0-0.2l0,0c0,0,0,0,0,0
		c0,0,0,0,0-0.1l0,0c0,0,0,0,0,0c0,0,0,0,0,0c-0.1-0.1,0-0.2,0-0.3v0c0.1-0.2,0.2-0.3,0.4-0.3c0.2,0,0.4,0.1,0.5,0.3
		c0.1,0.1,0.1,0.3,0,0.4c0,0,0,0,0,0c0,0,0,0,0,0c0,0,0,0,0,0c0,0,0,0,0,0c0,0,0,0,0,0c0,0.1,0,0.2,0,0.3c0,0,0,0,0,0c0,0,0,0,0,0
		c0,0,0,0,0,0v0c0,0.4-0.1,0.9-0.1,1.3v0c0,0.1,0,0.1,0,0.2v0c0,0,0,0,0,0s0,0,0,0c0,0,0,0,0,0c0,0.1,0,0.1,0,0.2l0,0c0,0,0,0,0,0
		c0,0,0,0,0,0l0,0c-0.1,0.9-0.1,1.8-0.1,2.7c0,0.5,0,0.9,0,1.4c0,0.4,0,0.9,0.1,1.4l0,0v0c0,0,0,0,0,0c0,0,0,0,0,0
		c0.1,1.4,0.3,2.9,0.6,4.3c0,0,0,0,0-0.1c0.1,0.5,0.2,0.9,0.3,1.4c0.1,0.5,0.1,0.9,0.2,1.4v0c0,0,0,0,0,0l0,0v0c0,0,0,0.1,0,0.1l0,0
		v0c0,0,0,0,0,0.1c0,0,0,0,0,0c0,0.3,0,0.6,0,0.9c0,0.4-0.1,0.7-0.2,1.1c-0.1,0.8-0.6,1.4-1.1,2c-0.2,0.2-0.5,0.5-0.7,0.7
		c-0.2,0.2-0.5,0.4-0.8,0.6c-0.3,0.1-0.6,0.2-0.9,0.3c-0.2,0.1-0.4,0.1-0.6,0.1c0,0,0,0,0,0c0,0-0.1,0-0.1,0
		C172.6,163.7,172.5,163.6,172.4,163.4z"/>
</g>
<g id="Vector_layer_27_">
	<path class="st5" d="M173.3,186.1c-0.6,0-1.2-0.1-1.7-0.2c-0.5-0.1-1.1-0.2-1.6-0.3c-0.3-0.1-0.6-0.2-0.9-0.3
		c-0.3-0.1-0.6-0.2-0.8-0.3c-0.5-0.2-1-0.4-1.4-0.7c-0.5-0.3-1-0.6-1.4-0.9c-0.4-0.3-0.9-0.7-1.3-1c-0.4-0.4-0.8-0.8-1.1-1.2
		c-0.3-0.4-0.5-0.9-0.7-1.3c-0.1-0.2-0.2-0.4-0.3-0.6c-0.1-0.2-0.2-0.5-0.2-0.7c-0.1-0.3-0.1-0.6-0.1-0.9c0-0.2,0-0.5,0.1-0.8
		c0.1-0.2,0.1-0.4,0.2-0.6c0.1-0.1,0.2-0.3,0.3-0.4c0.1-0.1,0.2-0.2,0.3-0.4h0h0c0,0,0,0,0,0s0,0,0,0c0,0,0,0,0,0l0,0l0,0l0,0l0,0
		c0.2-0.2,0.4-0.4,0.6-0.5c0.1,0,0.1-0.1,0.2-0.1c0.1,0,0.2-0.1,0.2-0.1c0,0,0,0,0,0c0,0,0,0,0,0c0,0,0,0,0,0c0,0,0,0,0,0
		c0.1,0,0.1-0.1,0.2-0.1l0,0l0,0c0.1,0,0.2-0.1,0.4-0.1c0.2,0,0.3,0,0.5-0.1c0,0,0,0,0,0c0,0,0,0,0,0c0,0,0,0,0,0s0,0,0,0
		c0,0,0,0,0,0c0,0,0.1,0,0.1,0c0,0,0,0,0,0c0.1,0,0.2,0.1,0.3,0.1c0.2,0.1,0.4,0.2,0.6,0.2c0,0,0.1,0,0.1,0.1c0.1,0,0.1,0.1,0.2,0.1
		c0,0,0.1,0,0.1,0.1c0,0,0.1,0.1,0.1,0.1c0,0,0,0,0,0l0,0c0.2,0.1,0.4,0.3,0.6,0.4c0.1,0.1,0.2,0.1,0.3,0.2c0.1,0.1,0.1,0.1,0.2,0.2
		c0.2,0.1,0.4,0.2,0.6,0.3c0.2,0.1,0.4,0.2,0.6,0.3c0,0,0,0,0,0c0.1,0.1,0.2,0.1,0.3,0.2c0.1,0.1,0.2,0.1,0.4,0.2
		c0.2,0.1,0.3,0.1,0.5,0.2c0.4,0.2,0.8,0.4,1.2,0.5c0.3,0.1,0.5,0.2,0.8,0.2c0.2,0,0.3,0.1,0.5,0.1c0.6,0.1,1.2,0.2,1.9,0.2
		c0,0,0,0,0,0c1.1,0.1,2.3,0.1,3.4,0.1c0.5,0,1,0,1.5,0.1c0.3,0,0.5,0,0.8,0c0.3,0,0.6,0.1,0.9,0.1c0.2,0,0.5,0.1,0.7,0.1
		c0.3,0.1,0.5,0.1,0.8,0.2c0.3,0.1,0.6,0.2,0.9,0.5c0.2,0.2,0.3,0.3,0.5,0.5c0.1,0.1,0.1,0.2,0.2,0.3c0.1,0.2,0.2,0.4,0.3,0.6
		c0.1,0.2,0.1,0.4,0.1,0.6c0,0.3,0,0.6,0,0.8c0,0.1,0,0.2,0,0.3c0,0,0,0.1,0,0.1s0,0.1,0,0.1c-0.1,0.1-0.1,0.2-0.2,0.3
		c-0.1,0.1-0.1,0.2-0.1,0.3c-0.1,0.1-0.1,0.2-0.2,0.3l0,0l0,0c-0.1,0.1-0.2,0.2-0.2,0.3c0,0,0,0,0,0c-0.1,0.1-0.2,0.3-0.4,0.4
		c-0.1,0.1-0.2,0.2-0.3,0.3c0,0,0,0,0.1,0c0,0-0.1,0-0.1,0.1c-0.1,0.1-0.2,0.1-0.4,0.2c-0.2,0.1-0.5,0.2-0.8,0.3
		c-0.4,0.1-0.8,0.3-1.1,0.4c-0.7,0.2-1.5,0.4-2.2,0.6c0,0,0,0,0,0c-0.6,0.1-1.1,0.2-1.7,0.2c-0.6,0-1.2,0.1-1.8,0.1
		c-0.3,0-0.6,0-0.9,0C173.8,186.1,173.5,186.1,173.3,186.1z"/>
</g>
<g id="Vector_layer_26_">
	<path class="st6" d="M169.1,341.3L169.1,341.3l0.5,0l0.4,0c-0.5,0-1.1,0-1.6,0c-2.2,0-4.4,0-6.5,0c-0.4,0-0.8-0.1-1.1-0.1
		c-1.4-0.2-2.9-0.3-4.3-0.5c-1.4-0.2-2.8-0.4-4.2-0.6c-1.4-0.2-2.9-0.4-4.3-0.6c-1.5-0.2-2.9-0.4-4.4-0.6c0,0,0,0,0,0
		c-1.6-0.2-3.3-0.5-4.9-0.8c-1.6-0.3-3.2-0.5-4.8-0.8h0c-1.7-0.3-3.3-0.8-4.9-1.2c-1.6-0.4-3.2-0.8-4.9-1.1
		c-1.2-0.3-2.4-0.7-3.6-1.1c-1.2-0.4-2.5-0.9-3.8-1.3c-0.7-0.2-1.4-0.4-2.1-0.5c-1.3-0.6-2.6-1.2-3.9-1.7c-1.3-0.5-2.6-1.1-3.9-1.6
		c-1.3-0.6-2.6-1.2-4-1.8c-1.2-0.5-2.5-1.1-3.7-1.7c-1.6-0.8-3.1-1.6-4.7-2.4c-0.7-0.4-1.4-0.7-2.1-1.1c-0.8-0.4-1.5-0.9-2.2-1.3
		c-1.2-0.8-2.4-1.6-3.6-2.3c0.1,0,0.1,0.1,0.2,0.1c-0.7-0.4-1.3-0.8-2-1.1c0,0,0,0,0,0c-0.4-0.2-0.7-0.4-1.1-0.6c0,0,0,0,0.1,0
		c-0.2-0.1-0.3-0.2-0.5-0.3c-0.3-0.2-0.5-0.4-0.8-0.6c-2.2-1.5-4.5-3-6.7-4.5h0l0,0c0,0,0,0-0.1,0c-0.9-0.6-1.8-1.2-2.6-1.8
		c-0.8-0.6-1.6-1.1-2.5-1.6c-1.7-1.1-3.3-2.3-5.1-3.3c0.3-0.6,0.1-1.3-0.4-1.6c-0.9-0.7-1.8-1.3-2.7-2c-0.8-0.5-1.6-1.1-2.4-1.7
		c0.1,0,0.1,0.1,0.1,0.1c-1.3-1.1-2.6-2.2-4-3.2l0,0c0,0,0,0,0,0c0,0,0,0,0,0c0,0,0,0,0,0c-0.2-0.1-0.4-0.3-0.5-0.4
		c-1.7-1.3-3.3-2.6-4.8-4c0-0.4-0.1-0.8-0.3-1.1c-0.3-0.3-0.7-0.6-1-1c-0.1-0.1-0.2-0.3-0.3-0.4c-0.7-0.7-1.5-1.3-2.3-1.9
		c-0.3-0.3-0.6-0.5-0.9-0.8c0.7-0.7,1.5-1.4,2.2-2.1l1-0.9c1.1-1,2.3-2.1,3.5-3.1l0.5-0.4l0.4-0.3l0.5-0.4c0.6-0.4,1.1-0.8,1.7-1.2
		c2.2-1.5,4.5-2.9,7-4.4c0.8-0.4,1.5-0.9,2.2-1.3c0.6-0.3,1.2-0.7,1.7-1l0.8-0.5c1.5-0.9,3.1-1.7,4.5-2.5c1.3-0.7,2.5-1.4,3.8-2
		c0.5-0.2,0.9-0.5,1.4-0.8l0.4-0.2c0.4-0.2,0.9-0.5,1.3-0.7l0.4-0.2l0.5-0.3l0.5-0.3c0.8-0.3,1.6-0.7,2.4-1c0.7-0.3,1.4-0.5,2.1-0.8
		c1.4-0.5,2.9-1.1,4.3-1.7c0.8-0.4,1.7-0.8,2.6-1.1c0.8-0.4,1.6-0.8,2.4-1c1-0.4,2-0.7,3-1.1c0.7-0.2,1.3-0.5,2-0.7
		c0.9-0.3,1.9-0.7,2.8-1c0.7-0.2,1.3-0.4,2-0.6c2.1-0.6,3.7-1.1,5.3-1.5l1.2-0.3c0.7-0.1,1.4-0.3,2.1-0.5c0.8-0.2,1.6-0.4,2.5-0.6
		l0.9-0.2c0.3-0.1,0.4-0.1,0.6-0.1c0.4-0.1,0.8-0.2,1.1-0.2c0.3-0.1,0.6-0.1,0.9-0.2l1.1-0.2l0.9-0.2c1.4-0.3,2.8-0.6,4.2-1l0.1,0
		l0.1,0c0.4,0,0.8-0.1,1.2-0.1l0.1,0c1-0.1,1.9-0.2,2.8-0.2h0.2c0.8,0,1.6,0.1,2.2,0.2c1.5,0.2,3,0.4,4.5,0.7
		c1.2,0.2,2.5,0.6,4.1,1.4l1.4,0.6c0.8,0.4,1.6,0.8,2.5,1.1c0.7,0.3,1.5,0.7,2.2,1c0.6,0.3,1.3,0.6,1.9,0.9c1.3,0.5,2.6,0.9,4.1,1.4
		c1.6,0.5,2.9,0.9,4.2,1.2c0.4,0.1,0.9,0.2,1.3,0.3c0.4,0.1,0.9,0.3,1.4,0.4c0.7,0.2,1.5,0.3,2.2,0.5c0.5,0.1,1,0.2,1.5,0.3l0.5,0.1
		l0.7,0.1c0.4,0.1,0.9,0.2,1.3,0.2c1.2,0.2,2.5,0.3,3.8,0.3l0.5,0c0.2,0,0.5,0,0.7,0.1c0.5,0,1.1,0.1,1.6,0.1h0.2c0.4,0,0.7,0,1.1,0
		c0.1,0,0.3,0,0.4,0c0.9,0.1,1.9,0.1,2.9,0.1c0.5,0,0.9,0,1.4-0.1c0.8-0.1,1.5-0.1,2.2-0.3c0.5-0.1,1.1-0.2,1.6-0.3l0.5-0.1l0.7-0.1
		c0.5-0.1,1-0.2,1.4-0.3c0.7-0.2,1.4-0.3,2.3-0.6l-0.2,0.1l1.1-0.3c1.2-0.4,2.5-0.7,3.7-1.2c1.3-0.5,2.5-1.1,3.9-1.7
		c0.6-0.3,1.2-0.6,1.8-0.9c0.6-0.3,1.3-0.6,1.9-1c0.9-0.5,1.9-1,2.8-1.5c0.6-0.3,1.1-0.5,1.6-0.8c0.5-0.2,1-0.5,1.4-0.8
		c0.3-0.2,0.6-0.3,0.8-0.5c1.7-0.9,3.2-1.7,4.7-2.4c0.4-0.2,0.8-0.4,1.2-0.6l0.8-0.4c1.1-0.3,2.2-0.6,3.5-0.8
		c1.3-0.2,2.8-0.5,4.3-0.7c1.3-0.1,2.7-0.2,4.2-0.2c1.3,0,2.7,0.1,4.2,0.3c1.3,0.1,2.8,0.3,4.2,0.6c1.3,0.2,2.8,0.6,4.3,0.9l0.3,0.1
		c1.3,0.3,2.6,0.6,3.9,1c1.1,0.3,2.3,0.7,3.4,1.1l0.2,0.1l0.2,0.1c0.5,0.2,1.1,0.4,1.6,0.7l-0.2-0.1c1.1,0.4,2.2,0.9,3.4,1.4
		l1.4,0.5c0.7,0.2,1.4,0.5,2.1,0.8l-0.2,0c3.8,1.5,7.7,3.2,12,5.3h0c0.4,0.2,0.9,0.5,1.3,0.7c0.7,0.3,1.3,0.7,2,1
		c0.9,0.5,1.8,0.9,2.7,1.3l0.8,0.4c0.5,0.2,1,0.5,1.5,0.7c0.6,0.3,1.3,0.6,1.9,0.9c1.1,0.5,2.2,1.1,3.2,1.6l0.1,0
		c0.8,0.4,1.4,0.7,2.1,1.1c0.5,0.3,1.1,0.5,1.6,0.8l0.8,0.4c1.1,0.5,2.2,1.1,3.2,1.6l0.3,0.1c0.6,0.3,1.3,0.6,1.9,1
		c0.7,0.4,1.4,0.8,2.3,1.3c1.5,0.9,3,1.8,4.5,2.5c0.5,0.2,0.9,0.5,1.3,0.7c1.1,0.6,2.2,1.1,3.2,1.8l-0.1-0.1c1.1,0.7,2.3,1.4,3.4,2
		c0.3,0.2,0.7,0.4,1,0.6c-1,1.1-1.9,2.1-2.9,3.2c0,0,0.1-0.1,0.1-0.1c-1.7,1.8-3.4,3.6-5.1,5.4c-0.2,0.2-0.3,0.5-0.4,0.8
		c-2.1,1.9-4.5,4-7.2,6.2c-3.1,2.5-5.9,4.8-8.5,7c-2.7,2.4-5.7,4.8-9.4,7.6c-3,2.2-6.1,4.3-9.1,6.4l-1.5,1c-1.2,0.7-2.3,1.5-3.5,2.2
		c-0.8,0.4-1.7,0.8-2.5,1.2c-1.1,0.5-2.1,1.1-3.2,1.6c-1.8,0.9-3.7,1.9-5.6,2.8l0.2-0.1l-0.3,0.1c-0.2,0.1-0.4,0.2-0.6,0.3l0.4-0.2
		l-1.6,0.7c-3.9,1.7-7.9,3.5-12,4.9c-1.3,0.5-2.7,0.9-4,1.4c-5.2,1.8-10.6,3.6-16,5.2c-3.2,0.9-6.7,1.7-11.3,2.5l-2,0.4
		c-4.1,0.8-8.3,1.5-12.5,2c-5.3,0.4-10.7,0.5-15.6,0.5C169.9,341.3,169.5,341.3,169.1,341.3L169.1,341.3z"/>
</g>
<g id="Vector_layer_25_">
	<path class="st7" d="M218.1,157.3c-0.1-0.2,0-0.4,0.2-0.5c0.2-0.1,0.4-0.1,0.6-0.2c0.1,0,0.2-0.1,0.3-0.1c0,0,0,0,0,0
		c0.2-0.1,0.3-0.2,0.5-0.3l0,0c0,0,0,0,0,0c0,0,0,0,0,0c0,0,0,0,0,0c0,0,0.1,0,0.1-0.1c0,0,0,0,0.1-0.1l0,0c0,0,0,0,0,0c0,0,0,0,0,0
		l0,0c0-0.1,0.1-0.1,0.1-0.2c0,0,0,0,0,0c0,0,0,0,0,0c0,0,0,0,0,0l0,0c0-0.1,0.1-0.1,0.1-0.1c0.1-0.1,0.1-0.3,0.1-0.4c0,0,0,0,0,0
		c0,0,0-0.1,0-0.1v0c0.1-0.2,0.1-0.4,0.2-0.6c0.1-0.5,0.1-1.1,0.2-1.6c0.1-0.3,0.1-0.6,0.2-0.9c0.1-0.3,0.3-0.5,0.4-0.7
		c0.1-0.2,0.2-0.3,0.3-0.5c0.1-0.1,0.2-0.3,0.3-0.4c0.2-0.3,0.4-0.6,0.6-0.9v0c0.1-0.2,0.3-0.4,0.4-0.6c0,0,0,0,0,0
		c0,0,0-0.1,0.1-0.1c0,0,0,0,0,0c0,0,0,0,0,0c0,0,0,0,0,0c0,0,0,0,0,0c0-0.1,0.1-0.1,0.1-0.2c0-0.2,0.1-0.3,0.1-0.5
		c0-0.1,0-0.2,0.1-0.4c0-0.1,0-0.2,0-0.3c0,0,0-0.1,0-0.1c0,0,0,0,0,0.1c0-0.1,0-0.1,0-0.1c0,0,0,0,0,0c-0.1-0.1-0.1-0.2-0.1-0.4
		c0-0.1-0.1-0.1-0.1-0.1c0,0,0-0.1-0.1-0.1c-0.1-0.1-0.1-0.1-0.2-0.2c0,0,0,0,0,0c-0.1-0.1-0.2-0.2-0.4-0.3l0,0l0,0c0,0,0,0,0,0
		c0,0,0,0,0,0c-0.1,0-0.1-0.1-0.2-0.1c0,0,0,0,0,0c-0.1,0-0.1-0.1-0.2-0.1h0h0c0,0,0,0,0,0c-0.1,0-0.1,0-0.1,0
		c-0.2,0-0.5,0.1-0.8,0.1c0,0,0,0,0.1,0c-0.1,0-0.1,0-0.1,0c0,0,0,0,0,0c0,0,0,0,0,0s0,0,0,0h0c-0.1,0-0.1,0.1-0.2,0.1c0,0,0,0,0,0
		c0,0,0,0,0,0c0,0,0,0,0,0c0,0,0,0,0,0c-0.1,0.1-0.2,0.1-0.3,0.1c0,0,0,0,0,0c0,0,0,0,0,0l0,0l0,0c-0.1,0-0.1,0.1-0.1,0.1
		c0,0,0,0,0,0c-0.1,0.1-0.3,0.2-0.4,0.3c0,0,0,0,0,0c0,0,0,0,0,0l0,0l0,0c-0.1,0.1-0.2,0.2-0.3,0.3c0,0,0,0,0,0.1c0,0,0,0,0,0.1
		c0,0,0,0,0,0c0,0,0,0,0,0l0,0c0,0,0,0,0,0c0,0,0,0,0,0c0,0,0,0,0,0c0,0.2-0.2,0.4-0.4,0.4c-0.2,0-0.4-0.2-0.4-0.4
		c0-0.1,0-0.1,0-0.2c0-0.1,0.1-0.2,0.2-0.3c0.1-0.2,0.3-0.3,0.4-0.4c0.2-0.2,0.4-0.3,0.6-0.5c0,0,0,0,0,0c0.3-0.2,0.6-0.3,0.9-0.4
		c0.2-0.1,0.5-0.1,0.7-0.1c0.2,0,0.4,0,0.6,0c0.1,0.1,0.3,0.1,0.4,0.2c0.2,0.1,0.4,0.2,0.5,0.4c0.2,0.1,0.3,0.3,0.4,0.5
		c0.1,0.1,0.1,0.2,0.2,0.4c0.1,0.1,0.1,0.3,0.1,0.4c0,0.1,0,0.3,0,0.4s0,0.3,0,0.4c0,0.1,0,0.2-0.1,0.4c0,0.1-0.1,0.2-0.1,0.4
		c0,0.2-0.1,0.3-0.2,0.5c0,0,0,0,0,0c-0.1,0.1-0.1,0.2-0.2,0.4c-0.1,0.1-0.1,0.2-0.2,0.4c-0.2,0.2-0.3,0.5-0.5,0.7
		c-0.1,0.2-0.3,0.4-0.5,0.6c-0.2,0.2-0.4,0.5-0.5,0.7c-0.1,0.1-0.1,0.2-0.2,0.3c0,0,0,0,0,0c0,0.1-0.1,0.1-0.1,0.2l0,0v0
		c0,0,0,0,0,0c0,0,0,0,0,0c-0.1,0.2-0.1,0.4-0.1,0.6c0,0,0,0.1,0,0.1c-0.1,0.4-0.1,0.8-0.2,1.2c0,0.1,0,0.2-0.1,0.3
		c0,0.2-0.1,0.4-0.2,0.6l0,0c-0.1,0.2-0.1,0.3-0.2,0.5c-0.1,0.2-0.2,0.3-0.3,0.4c-0.1,0.2-0.3,0.3-0.5,0.4c-0.3,0.2-0.6,0.3-0.9,0.4
		c-0.1,0.1-0.3,0.1-0.4,0.1c0,0,0,0,0,0c0,0-0.1,0-0.1,0C218.4,157.5,218.2,157.4,218.1,157.3z"/>
</g>
<g id="Vector_layer_24_">
	<path class="st7" d="M126.1,159.8c0.1-0.2,0-0.4-0.2-0.5c-0.2-0.1-0.4-0.1-0.6-0.2c-0.1,0-0.2-0.1-0.3-0.1c0,0,0,0,0,0
		c-0.2-0.1-0.3-0.2-0.5-0.3l0,0c0,0,0,0,0,0c0,0,0,0,0,0c0,0,0,0,0,0c0,0-0.1,0-0.1-0.1c0,0,0,0-0.1-0.1l0,0c0,0,0,0,0,0
		c0,0,0,0,0,0l0,0c0-0.1-0.1-0.1-0.1-0.2c0,0,0,0,0,0c0,0,0,0,0,0c0,0,0,0,0,0l0,0c0-0.1-0.1-0.1-0.1-0.1c-0.1-0.1-0.1-0.3-0.1-0.4
		c0,0,0,0,0,0c0,0,0-0.1,0-0.1v0c-0.1-0.2-0.1-0.4-0.2-0.6c-0.1-0.5-0.1-1.1-0.2-1.6c-0.1-0.3-0.1-0.6-0.2-0.9
		c-0.1-0.3-0.3-0.5-0.4-0.7c-0.1-0.2-0.2-0.3-0.3-0.5c-0.1-0.1-0.2-0.3-0.3-0.4c-0.2-0.3-0.4-0.6-0.7-0.9v0
		c-0.1-0.2-0.3-0.4-0.4-0.6c0,0,0,0,0,0c0,0,0-0.1-0.1-0.1c0,0,0,0,0,0c0,0,0,0,0,0c0,0,0,0,0,0c0,0,0,0,0,0c0-0.1-0.1-0.1-0.1-0.2
		c0-0.2-0.1-0.3-0.1-0.5c0-0.1,0-0.2-0.1-0.4c0-0.1,0-0.2,0-0.3c0,0,0-0.1,0-0.1c0,0,0,0,0,0.1c0-0.1,0-0.1,0-0.1c0,0,0,0,0,0
		c0.1-0.1,0.1-0.2,0.2-0.4c0-0.1,0.1-0.1,0.1-0.1c0,0,0-0.1,0.1-0.1c0.1-0.1,0.1-0.1,0.2-0.2c0,0,0,0,0,0c0.1-0.1,0.2-0.2,0.4-0.3
		l0,0l0,0c0,0,0,0,0,0c0,0,0,0,0,0c0.1,0,0.2-0.1,0.2-0.1c0,0,0,0,0,0c0.1,0,0.1-0.1,0.2-0.1h0h0c0,0,0,0,0,0c0.1,0,0.1,0,0.1,0
		c0.2,0,0.5,0.1,0.8,0.1c0,0,0,0-0.1,0c0.1,0,0.1,0,0.1,0c0,0,0,0,0,0c0,0,0,0,0,0s0,0,0,0h0c0.1,0,0.1,0.1,0.2,0.1c0,0,0,0,0,0
		c0,0,0,0,0,0c0,0,0,0,0,0c0,0,0,0,0,0c0.1,0.1,0.2,0.1,0.3,0.1c0,0,0,0,0,0c0,0,0,0,0,0l0,0l0,0c0.1,0,0.1,0.1,0.1,0.1c0,0,0,0,0,0
		c0.1,0.1,0.3,0.2,0.4,0.3c0,0,0,0,0,0c0,0,0,0,0,0l0,0l0,0c0.1,0.1,0.2,0.2,0.3,0.3c0,0,0,0,0,0.1c0,0,0,0,0,0.1c0,0,0,0,0,0
		c0,0,0,0,0,0l0,0c0,0,0,0,0,0c0,0,0,0,0,0c0,0,0,0,0,0c0,0.2,0.2,0.4,0.4,0.4c0.2,0,0.4-0.2,0.4-0.4c0-0.1,0-0.1,0-0.2
		c0-0.1-0.1-0.2-0.2-0.3c-0.1-0.2-0.3-0.3-0.4-0.4c-0.2-0.2-0.4-0.3-0.6-0.5c0,0,0,0,0,0c-0.3-0.2-0.6-0.3-0.9-0.4
		c-0.2-0.1-0.5-0.1-0.7-0.1c-0.2,0-0.4,0-0.6,0c-0.1,0.1-0.3,0.1-0.4,0.2c-0.2,0.1-0.3,0.2-0.5,0.4c-0.2,0.1-0.3,0.3-0.4,0.5
		c-0.1,0.1-0.1,0.2-0.2,0.4c-0.1,0.1-0.1,0.3-0.1,0.4c0,0.1,0,0.3,0,0.4s0,0.3,0,0.4c0,0.1,0,0.2,0.1,0.4c0,0.1,0.1,0.2,0.1,0.4
		c0,0.2,0.1,0.3,0.2,0.5c0,0,0,0,0,0c0.1,0.1,0.1,0.2,0.2,0.4c0.1,0.1,0.2,0.2,0.2,0.4c0.2,0.2,0.3,0.5,0.5,0.7
		c0.2,0.2,0.3,0.4,0.5,0.6c0.2,0.2,0.4,0.5,0.5,0.7c0.1,0.1,0.1,0.2,0.2,0.3c0,0,0,0,0,0c0,0.1,0.1,0.1,0.1,0.2l0,0v0c0,0,0,0,0,0
		c0,0,0,0,0,0c0.1,0.2,0.1,0.4,0.1,0.6c0,0,0,0.1,0,0.1c0.1,0.4,0.1,0.8,0.2,1.2c0,0.1,0,0.2,0.1,0.3c0,0.2,0.1,0.4,0.2,0.6l0,0
		c0.1,0.2,0.1,0.3,0.2,0.5c0.1,0.2,0.2,0.3,0.3,0.4c0.1,0.2,0.3,0.3,0.5,0.4c0.3,0.2,0.6,0.3,0.9,0.4c0.1,0.1,0.3,0.1,0.4,0.1
		c0,0,0,0,0,0c0,0,0.1,0,0.1,0C125.9,160,126.1,159.9,126.1,159.8z"/>
</g>
<g id="Vector_layer_23_">
	<path class="st6" d="M213.1,152c0-4.8,3.3-8.6,7.3-8.6c4,0,7.3,3.9,7.3,8.6c0,4.8-3.3,8.6-7.3,8.6
		C216.3,160.6,213.1,156.7,213.1,152z"/>
</g>
<g id="Vector_layer_22_">
	<path class="st8" d="M224.5,156.3c-0.2-0.2-0.2-0.6-0.1-0.9c0,0,0,0,0-0.1c0-0.1,0.1-0.1,0.1-0.2c0-0.1,0.1-0.1,0.1-0.1
		c0.1-0.1,0.1-0.3,0.2-0.4c0,0,0,0,0-0.1c0.1-0.1,0.1-0.3,0.1-0.4c0.1-0.2,0.1-0.4,0.2-0.7c0.1-0.2,0.1-0.4,0.1-0.6
		c0-0.1,0-0.1,0-0.1c0-0.5,0-1,0-1.5c0-0.1,0-0.2,0-0.2c0-0.1-0.1-0.2-0.1-0.3c0,0,0-0.1,0-0.1v0v0c0,0,0,0,0,0c0,0,0,0,0,0
		c-0.1-0.2-0.1-0.3-0.1-0.5c-0.1-0.3-0.2-0.6-0.3-0.9c-0.1-0.1-0.1-0.3-0.2-0.4c0,0,0,0.1,0,0.1c-0.1-0.1-0.1-0.2-0.2-0.4
		c-0.1-0.1-0.1-0.2-0.2-0.4c-0.1-0.1-0.1-0.1-0.2-0.2c-0.1-0.1-0.2-0.2-0.2-0.3c0,0,0,0,0,0c0,0,0,0,0-0.1l0,0l0,0
		c-0.2-0.2-0.4-0.5-0.6-0.7c-0.1-0.1-0.1-0.1-0.2-0.2c0,0-0.1-0.1-0.1-0.1c-0.1,0-0.1-0.1-0.1-0.1c0,0,0,0,0,0c0,0,0,0,0,0
		c0,0,0,0,0,0c0,0,0,0,0,0l0,0c-0.1,0-0.1-0.1-0.2-0.1c0,0,0,0,0.1,0c-0.1-0.1-0.1-0.1-0.2-0.1c-0.1,0-0.1-0.1-0.2-0.1
		c-0.1,0-0.1-0.1-0.2-0.1c-0.3,0-0.5-0.3-0.5-0.6c0-0.3,0.2-0.6,0.5-0.6l0,0c0,0,0,0,0,0c0.2,0,0.4,0.1,0.6,0.1
		c0.2,0.1,0.4,0.2,0.7,0.3l0,0l0,0c0,0,0,0,0,0c0,0,0,0,0,0c0,0,0,0,0,0c0,0,0,0,0,0l0,0c0.2,0.1,0.5,0.3,0.7,0.6
		c0.2,0.2,0.5,0.5,0.7,0.8l0,0c0.1,0.2,0.2,0.3,0.4,0.5c0.1,0.1,0.2,0.3,0.3,0.4c0.1,0.1,0.2,0.3,0.2,0.4c0.4,0.6,0.6,1.4,0.8,2.1
		c0,0,0,0,0,0c0,0,0,0,0,0c0.1,0.2,0.1,0.4,0.1,0.6c0.1,0.3,0.1,0.6,0.1,1c0,0.3,0,0.5,0,0.8c0,0.2,0,0.4,0,0.6
		c-0.1,0.4-0.2,0.7-0.2,1.1c0,0.2-0.1,0.4-0.1,0.5c0,0.1-0.1,0.2-0.1,0.3c0,0,0,0.1,0,0.1l0,0l0,0c0,0,0,0.1,0,0.1c0,0,0,0,0-0.1
		c0,0.1-0.1,0.2-0.1,0.3c0,0,0,0,0,0c-0.1,0.1-0.1,0.2-0.1,0.3c-0.1,0.1-0.1,0.2-0.1,0.3c-0.1,0.1-0.1,0.2-0.1,0.3
		c-0.1,0.2-0.2,0.2-0.4,0.2C224.7,156.5,224.6,156.4,224.5,156.3z"/>
</g>
<g id="Vector_layer_21_">
	<path class="st6" d="M196,188.5c-0.3-0.3-0.3-0.9,0-1.2c0.2-0.2,0.6-0.4,0.9-0.5c0.4-0.2,0.8-0.2,1.1-0.4c0.4-0.1,0.9-0.2,1.3-0.4
		c0.6-0.2,1.1-0.3,1.7-0.5c0,0,0,0-0.1,0c0.3-0.1,0.6-0.2,0.9-0.3c0.1-0.1,0.3-0.1,0.4-0.2c0.1-0.1,0.2-0.1,0.3-0.2
		c0,0,0.1-0.1,0.1-0.1c0.1-0.1,0.2-0.2,0.3-0.4c0,0,0,0,0,0c0.3-0.5,0.6-1,0.9-1.6c0.3-0.6,0.7-1.2,1-1.8c0,0,0,0.1-0.1,0.1
		c0.5-1,0.9-2,1.4-3c0.5-1,1-1.9,1.5-2.9c0.1-0.1,0.1-0.2,0.2-0.4c0,0,0,0,0,0c0.2-0.4,0.4-0.7,0.5-1.1c0,0,0,0.1-0.1,0.1
		c0-0.1,0.1-0.1,0.1-0.2c0,0,0,0,0-0.1c0,0,0,0,0,0c0,0,0,0,0-0.1v0c0.9-1.8,1.9-3.6,2.9-5.4c0.5-0.9,1-1.9,1.5-2.8
		c0.5-0.9,1.1-1.9,1.6-2.8c0.6-1.1,1.1-2.1,1.7-3.2c0.2-0.4,0.4-0.9,0.6-1.4c0.2-0.4,0.7-0.7,1.2-0.5c0.4,0.2,0.7,0.7,0.5,1.2
		c-0.2,0.5-0.4,1-0.7,1.5c-0.2,0.5-0.5,1-0.8,1.4c-0.5,0.9-1,1.9-1.5,2.8c-0.5,0.9-1.1,1.9-1.6,2.8c-0.5,0.9-1,1.9-1.5,2.8
		c-0.8,1.5-1.6,2.9-2.3,4.4c0,0.1-0.1,0.1-0.1,0.2c0,0,0-0.1,0.1-0.1c0,0.1-0.1,0.1-0.1,0.2l0,0c-0.2,0.3-0.3,0.6-0.5,0.9
		c0,0,0,0,0,0c-0.6,1.2-1.2,2.4-1.8,3.5c0,0,0-0.1,0.1-0.1c-0.5,0.9-0.9,1.9-1.4,2.8c-0.5,0.9-1,1.8-1.5,2.7
		c-0.4,0.7-0.8,1.4-1.5,1.8c-0.7,0.5-1.5,0.7-2.4,1c-0.3,0.1-0.7,0.2-1,0.3c-0.3,0.1-0.6,0.2-0.8,0.2c-0.5,0.1-1,0.2-1.5,0.4
		c0,0,0.1,0,0.1,0c-0.2,0.1-0.4,0.1-0.6,0.2c0,0,0,0,0.1,0c0,0-0.1,0-0.1,0c-0.2,0.1-0.4,0.2-0.6,0.2
		C196.4,188.8,196.2,188.7,196,188.5z"/>
</g>
<g id="Vector_layer_20_">
	<path class="st6" d="M191.1,187.7c0-1.4,1.8-2.5,4.1-2.5s4.1,1.1,4.1,2.5s-1.8,2.5-4.1,2.5S191.1,189.1,191.1,187.7z"/>
</g>
</svg>
