<svg version="1.1" id="Layer_1" xmlns="http://www.w3.org/2000/svg" xmlns:xlink="http://www.w3.org/1999/xlink" x="0px" y="0px"
	 viewBox="0 0 440.9 438.2" style="enable-background:new 0 0 440.9 438.2;" xml:space="preserve">
<style type="text/css">
	.st0{fill:#E0DEDF;}
	.st1{fill:#F6FAFA;}
	.st2{fill:#717171;fill-opacity:0.1494;}
	.st3{fill:#A4ABAB;fill-opacity:0.3598;}
	.st4{fill:#F03434;}
	.st5{fill:#17081E;}
	.st6{fill:#9D9D9D;}
	.st7{fill:#220D2A;}
	.st8{fill:#D5D0D6;}
</style>
<g id="Vector_layer_37_">
	<path class="st0" d="M0,219.1C0,98.3,98.9,0,220.4,0s220.4,98.3,220.4,219.1S342,438.2,220.4,438.2C98.9,438.2,0,339.9,0,219.1z"/>
</g>
<g id="Vector_layer_36_">
	<path class="st1" d="M223.9,373.2c-1.2,0-2.4-0.1-3.6-0.1c-1-0.1-2-0.2-3-0.3l-0.5,0c-1.4-0.1-2.5-0.3-3.6-0.5
		c-1.1-0.2-2.3-0.4-3.6-0.8c-1.1-0.3-2.2-0.7-3.6-1.2c-1.9-0.7-3.9-1.5-6.3-2.5c-1.1-0.5-2.3-1-3.4-1.5c-1-0.5-2-1-3.1-1.6
		c-2.1-1.2-4.2-2.6-6.2-4l-1-0.7c-1.1-0.8-2.3-1.6-3.4-2.4c-0.5-0.4-1-0.7-1.5-1.1c-0.9-0.6-1.8-1.2-2.6-1.9
		c-1.5-1.1-2.9-2.3-4.4-3.6c-0.7-0.6-1.3-1.1-2-1.7l-0.1-0.1c-1.1-0.9-2.4-2.1-2.3-3.7c0-0.2,0.1-0.3,0.1-0.5
		c-0.1-0.2-0.1-0.5-0.1-0.7c-0.1-1.6,0.1-3.3,0.2-4.9c0.1-0.5,0.1-1.1,0.1-1.6v0l0,0h0l0,0.2c0.2-2.7,0.4-5.4,0.7-8
		c0.1-1.2,0.3-2.4,0.4-3.5c0.2-1.6,0.4-3.3,0.6-5c0.1-0.9,0.1-1.8,0.2-2.7l0.1-1.8c0.1-1,0.1-1.9,0.2-2.8c0.1-0.6,0.1-1.3,0.1-1.9
		c0.1-1.5,0.2-3,0.3-4.4c0.1-0.7,0.1-1.5,0.2-2.2c0.1-0.7,0.1-1.3,0.2-2v0.3c0.2-3.4,0.1-6.9,0.1-10.3l0-0.8c0-3.8-0.1-7.1-0.4-10.2
		c0-0.1,0-0.2,0-0.2c0-0.5-0.1-1-0.1-1.5v-0.1h0c-0.1-1.5-0.4-3-0.6-4.5l-0.1-0.8c-0.3-1.8-0.6-3.7-1-5.8c-0.3-1.4-0.5-2.8-0.8-4.2
		c-0.1-1.5-0.3-3-0.5-4.1l-0.1-0.4c-0.2-1.2-0.5-2.5-0.8-3.7c-0.3-1.3-0.6-2.6-0.9-4c-0.4-1.9-0.8-3.9-1.2-5.8c0,0,0-0.1,0-0.1
		l-0.1-0.7c0.1-0.1,0.1-0.2,0.2-0.3c0.4-0.4,1-0.6,1.6-0.6c0.6,0,1.2,0.2,1.6,0.6c0.2,0.2,0.4,0.4,0.5,0.8l0.5-1l0.2-0.3
		c0.3-0.6,0.6-1.2,1-1.8l0.3-0.5c0.3-0.6,0.6-1.1,1-1.6l-0.1,0.1l0.4-0.7c0.5-0.7,1-1.4,1.4-2.1c0.5-0.7,1-1.4,1.5-2
		c0.2-0.3,0.5-0.6,0.7-0.9c0.5-0.7,1.1-1.3,1.6-1.9c0.2-0.3,0.5-0.5,0.7-0.8c1.4-1.6,3-3.3,5-5.1c1.9-1.8,3.7-3.3,5.6-4.6l0.6-0.4
		c0.8-0.5,1.6-1.1,2.4-1.6c0.3-0.2,0.6-0.4,0.9-0.5c0.7-0.4,1.4-0.9,2.2-1.3l2.1-1.2l1-0.5c0.7-0.4,1.5-0.8,2.3-1.1
		c0.4-0.2,0.7-0.3,1.1-0.5c1.8-0.9,3.8-1.6,6.4-2.4c1.4-0.4,2.9-0.8,4.4-1.1l0.1,0c0.9-0.2,1.8-0.4,2.9-0.6c1.7-0.3,3.5-0.6,5.3-0.7
		c0.9-0.1,1.8-0.1,2.6-0.1c0.6,0,1.1,0,1.6,0.1c1.2,0.1,2.6,0.3,4.1,0.8c1.3,0.4,2.6,0.8,3.8,1.3l0.8,0.3l0.4,0.1l0.3,0.1h0l0.2,0.1
		l0.4,0.1l0.3,0.1l0.4,0.1l-0.3-0.1c1.2,0.4,2.4,0.8,3.6,1.3c1,0.4,2,0.9,3,1.3l0.1,0.1c2,1,4.1,2.1,6.3,3.4l0.8,0.4
		c0.8,0.4,1.5,0.9,2.3,1.3c0.3,0.2,0.6,0.3,0.9,0.5c0.8,0.4,1.5,0.8,2.2,1.2c1.1,0.7,2.1,1.4,3.1,2.1c1,0.8,2,1.6,2.9,2.4
		c0.9,0.8,1.7,1.4,2.5,2.2c0.4,0.4,0.9,0.8,1.3,1.2c0.3,0.3,0.6,0.6,0.8,0.9c0.3,0.4,0.6,1,0.8,1.6c0.3,1,0.5,2.1,0.7,3.2l0.1,0.7
		c0.2,1.1,0.4,2.2,0.5,3.3c0.3,2.1,0.6,4.2,0.5,6.3l0,0.2c0,1-0.1,2.1-0.2,3.1c-0.1,0.9-0.3,1.7-0.5,2.5l-0.1,0.4
		c-0.2,1.3-0.5,3-0.7,4.7c-0.1,1.5-0.1,2.9-0.2,4.4l-0.1,2.3c0,1-0.1,2.1-0.2,3.1c-0.1,1.2-0.1,2.5-0.2,3.8l0,0.6
		c-0.1,2.2-0.2,4.3-0.2,6.5c0,2.1,0,4.4,0,7l0,0.3c0.1,4.4,0.2,9,0.5,13.5c0.1,2,0.2,4.1,0.3,6.2c0.1,2.3,0.2,4.6,0.4,7v0.1l0,0.1
		c0.3,4.4,0.7,8.9,1.2,13.3c0.2,2.2,0.5,4.5,0.9,6.8c0.3,1.9,0.5,3.9,0.7,5.8l0.1,0.7l0.1,1c0.1,1.2,0.2,2.4,0.4,3.5
		c0.9,0.6,1.2,1.9,0.7,2.9c-1.5,2.7-3.6,5.3-6.2,7.8c-3.6,3.3-8,5.8-11.6,7.8c-0.8,0.5-1.6,0.9-2.5,1.3l-0.8,0.4l-0.5,0.3
		c-0.8,0.4-1.7,0.9-2.5,1.3c-0.8,0.4-1.6,0.7-2.4,1l-0.8,0.3l-1.2,0.5c-0.7,0.3-1.4,0.6-2.1,0.9c-4.4,1.8-9.1,2.9-13.9,3.3
		C226.4,373.2,225.1,373.3,223.9,373.2L223.9,373.2L223.9,373.2z"/>
</g>
<g id="Vector_layer_35_">
	<path class="st2" d="M167.9,346.4c0.2,0.2,0.6,0.4,0.9,0.3c-0.3,0.1-0.5,0.3-0.8,0.4c-0.1,0.1-0.2,0.1-0.4,0.2
		C167.7,347,167.8,346.7,167.9,346.4z"/>
	<path class="st2" d="M173.3,339.4C173.3,339.4,173.3,339.4,173.3,339.4C173.3,339.4,173.3,339.4,173.3,339.4L173.3,339.4
		C173.2,339.4,173.2,339.4,173.3,339.4L173.3,339.4L173.3,339.4c-0.1,0-0.1,0-0.1,0C173.2,339.4,173.2,339.4,173.3,339.4
		c-0.5-0.1-1-0.2-1.4-0.3c0.9,0,1.8,0,2.7,0.1c-0.3,0.1-0.7,0.2-1,0.3C173.5,339.4,173.4,339.4,173.3,339.4z"/>
	<path class="st3" d="M195.3,299.5c-1.4,0-3-0.1-4.9-0.2l-0.4,0c-1.6-0.1-3.2-0.2-4.8-0.4l0.2,0c-1.7-0.2-3.3-0.4-4.9-0.7
		c-1.1-0.2-1.9-0.5-2.7-0.7l-0.3-0.1l-0.4-0.2c-0.5-0.2-0.9-0.4-1.4-0.6l-0.7-0.3c-0.6-0.3-1.3-0.6-1.9-0.9l0-0.4l0-0.2l0-0.3l0-0.3
		v-0.1c0-0.6,0-1.1,0-1.7c0-1.1,0-2.3,0-3.4c0-0.6,0-1.1,0-1.7V287c0-0.8,0-1.5-0.1-2.3c-0.1-1.3-0.2-2.8-0.4-4.4
		c-0.3-2.7-0.6-5.6-1.1-8.3c-0.1-0.9-0.4-1.7-0.6-2.6c-0.1-0.5-0.2-0.8-0.3-1.2l-0.1-0.7l0-0.1l-0.1-0.4l-0.4-2.2l-0.1-0.5
		c-0.2-1.2-0.4-2.4-0.6-3.6c0,0,0-0.1,0-0.2c-0.3-1.7-0.6-3-1-4.3l-0.1-0.4l-0.1-0.3L168,255l-0.1-0.8c-0.1-1-0.3-2.2-0.6-3.4
		l-0.4-1.7c-0.1-0.2-0.1-0.4-0.1-0.6l0-0.1c-0.1-0.3-0.1-0.5-0.1-0.8c2.2-0.9,4.7-1.8,7.9-2.8c4.1-1.3,8.4-2,12.5-2.7l0.6-0.1
		c3.4-0.6,7-0.8,10.8-0.8c0.8,0,1.7,0,2.5,0c5.1,0.2,10.3,0.3,15.4,0.3h0.4l4.2,0.1c5.4,0.1,10.7,0.9,15.9,1.8
		c3.1,0.5,6.3,1,9.5,1.3c4,0.2,7,0.3,9.8,0.3c0.6,0,1.2,0,1.9,0l0.8-0.1l1.5-0.2c3-0.6,6.6-1.4,10.2-2.4l0,0.2
		c-0.2,0.5-0.2,1-0.2,1.5l0,0.2l0,0.8l0,0.8c-0.2,0.3-0.3,0.6-0.3,0.9c0,0.2,0,0.5,0,0.8v0.4c-0.1,0.1-0.1,0.3-0.1,0.4
		c0,0.2,0,0.5,0,0.8c0,0.7,0,1.3,0,2c-0.4,0.4-0.9,0.9-1.3,1.4c-2,2.2-4,4.8-6.3,7.8c-1,1.4-2.1,2.8-3.1,4.2c0,0.1-0.1,0.1-0.1,0.2
		c-0.6,0.6-1.1,1.2-1.7,1.7c-1.1,1.1-2.1,2.3-3.2,3.5s-2.1,2.3-3.2,3.5l-0.1,0.1l0,0c-1.2,1.3-2.6,2.6-4.1,4
		c-0.9,0.9-1.9,1.7-2.8,2.6l-0.2,0.2l-1,0.9l-1,1l-1,1c-1.9,1.3-3.8,2.6-5.6,3.9l-0.1,0.1l-0.1,0.1l-0.1,0.1l-0.1,0.1l-0.2,0.1
		l-0.1,0.1l-0.1,0h0c0,0-0.1,0.1-0.1,0.1l-0.1,0.1c0,0-0.1,0.1-0.1,0.1c-0.2,0.2-0.5,0.4-0.8,0.6c-0.4,0.3-0.8,0.6-1.3,0.9
		c-0.6,0.3-1.2,0.5-1.8,0.8l-0.7,0.3c-1.3,0.6-2.6,1.2-3.8,1.8l-0.3,0.1c-1.1,0.5-2.1,1.1-3.2,1.6c0,0,0.1-0.1,0.1-0.1l-0.5,0.3
		c-2.3,1-4.6,2-6.9,2.8l-0.8,0.2l-2,0.6c-0.6,0.1-1.2,0.2-1.8,0.3c-0.6,0.1-1.3,0.2-1.9,0.4l-0.6,0.1l-0.1,0
		c-0.5,0.1-0.9,0.2-1.4,0.3l-2.6,0.4l-0.5,0l-0.5,0c-1.8,0.1-3.6,0.2-5.4,0.2L195.3,299.5L195.3,299.5L195.3,299.5z"/>
</g>
<g id="Vector_layer_34_">
	<path class="st1" d="M150.5,177.9c0-58.7,30.9-106.4,68.8-106.4s68.8,47.7,68.8,106.4s-30.9,106.4-68.8,106.4
		S150.5,236.5,150.5,177.9z"/>
</g>
<g id="Vector_layer_33_">
	<path class="st4" d="M150.3,182.5c-0.6-0.4-1.1-0.9-1.6-1.4c-0.5-0.5-0.9-1.1-1.4-1.6c-0.8-1.1-1.3-2.3-1.9-3.5
		c-0.7-1.2-1.2-2.5-1.8-3.8c-0.6-1.5-1.1-3-1.6-4.5c-0.4-1.4-0.8-2.9-1.1-4.3c0-0.1-0.1-0.2-0.1-0.4c0,0,0,0,0,0c0-0.1,0-0.1,0-0.1
		c0-0.1,0-0.1,0-0.2c0-0.1,0-0.1,0-0.2c0,0,0,0,0-0.1l0,0c-0.6-2.7-0.9-5.5-1.1-8.2c-0.2-2.8-0.3-5.7-0.3-8.5c0-1.4,0-2.9,0-4.4
		c0-1.5,0.1-3.1,0.2-4.6c0.1-1.4,0.3-2.8,0.4-4.1c0.1-0.7,0.1-1.4,0.2-2.1c0.1-0.8,0.3-1.6,0.4-2.4c0.2-1.2,0.6-2.4,1-3.6
		c0.4-1.2,0.8-2.3,1.3-3.5c1-2.4,2.2-4.7,3.4-7.1c0,0.1-0.1,0.1-0.1,0.2c0.9-1.7,1.9-3.3,2.9-4.9c0.6-0.8,1.1-1.6,1.7-2.4
		c0.3-0.4,0.6-0.8,0.9-1.1c0.4-0.4,0.8-0.8,1.3-1c0,0,0,0,0,0c0.1-0.1,0.2-0.1,0.4-0.1c0.4-0.1,0.7,0.1,1,0.3c0,0,0.1,0.1,0.1,0.1
		c0,0,0,0,0.1,0c0.3-0.1,0.7-0.1,1.1-0.1c0.3,0,0.6,0.1,0.9,0.1c0.9,0.2,1.4,0.9,1.8,1.7c0.2,0.4,0.3,0.8,0.4,1.2
		c0.1,0.6,0.1,1.3,0.1,1.9c0,1.3,0,2.7,0,4c0,1.7-0.1,3.4-0.2,5.1c-0.1,1.7-0.1,3.4-0.3,5.2c0,0.1,0,0.2,0,0.3c0,0.2,0,0.4,0,0.5
		c0,0.6-0.1,1.2-0.1,1.8c0,0.3,0,0.6-0.1,0.9c-0.1,2.2-0.3,4.4-0.4,6.6c-0.1,1.9-0.2,3.7-0.4,5.6c-0.1,2-0.3,4-0.4,5.9
		c0,0,0-0.1,0-0.1c-0.1,1.4-0.2,2.8-0.2,4.2c-0.1,1.4-0.1,2.9-0.1,4.3c0,2.8-0.1,5.7-0.2,8.5c-0.1,2.8-0.3,5.6-0.4,8.4
		c-0.1,1.4-0.3,2.8-0.5,4.2c-0.2,1.4-0.4,2.9-0.7,4.3c-0.3,1.3-1,2.7-2.4,3.2c-0.2,0.1-0.5,0.1-0.7,0.1
		C151.4,183,150.8,182.8,150.3,182.5z"/>
	<path class="st4" d="M281.2,187.1c-0.4-0.5-0.7-1.1-1-1.8c-0.2-0.6-0.4-1.3-0.6-2c-0.2-0.7-0.3-1.4-0.4-2.1
		c-0.2-1.4-0.3-2.7-0.5-4.1c-0.1-1.2-0.4-2.5-0.6-3.7c-0.2-1.4-0.5-2.9-0.7-4.3c-0.2-1.4-0.4-2.7-0.6-4.1c-0.4-2.8-0.8-5.6-1.1-8.4
		c-0.1-1.4-0.3-2.9-0.5-4.3c-0.2-1.4-0.5-2.9-0.7-4.3c-0.2-1.4-0.4-2.8-0.6-4.2c-0.2-1.3-0.4-2.6-0.5-3.9c-0.3-2.5-0.6-5.1-1-7.6
		c-0.2-1.3-0.4-2.6-0.5-3.9c-0.1-0.7-0.2-1.4-0.2-2c-0.3-0.2-0.5-0.6-0.4-1c0-0.9,0.1-1.7,0.1-2.6c0-0.8,0-1.5,0.3-2.3
		c0.2-0.7,0.5-1.4,0.9-2c0.4-0.6,0.7-1.2,1.1-1.8c0,0.1-0.1,0.1-0.1,0.1c0-0.1,0.1-0.2,0.2-0.2c0.6-0.9,1.3-1.8,2-2.5
		c0.8-0.8,1.5-1.6,2.3-2.3c0.8-0.7,1.6-1.4,2.5-2.1c0.9-0.7,1.8-1.3,2.7-1.8c0,0,0,0,0,0c0.9-0.4,1.8-0.9,2.8-1.1
		c1-0.2,2.1-0.1,3.1,0.1c0.8,0.2,1.5,0.3,2.2,0.6c0.8,0.3,1.3,1,1.8,1.7c0.7,1,1.1,2.2,1.3,3.4c0.3,1.3,0.4,2.7,0.5,4.1
		c0,2.7-0.1,5.4-0.1,8.2c0,2.8,0,5.5-0.1,8.3c0,1.6-0.1,3.3-0.1,4.9c0,1.6-0.1,3.1-0.2,4.7c0,0.1,0,0.1,0,0.2c0,0.1,0,0.1,0,0.2
		c0,0.1,0,0.1,0,0.2c0,0,0,0,0,0c0,0.1,0,0.1,0,0.1c0,0,0,0,0,0.1c-0.1,1.4-0.3,2.8-0.4,4.2c-0.2,1.4-0.3,2.8-0.5,4.2
		c-0.2,1.3-0.3,2.7-0.5,4c-0.2,1.4-0.4,2.8-0.6,4.2c-0.2,1.9-0.5,3.7-0.8,5.6c-0.2,0.9-0.4,1.8-0.6,2.7c-0.2,0.9-0.4,1.7-0.5,2.6
		c0,0.2-0.1,0.5-0.1,0.7c-0.3,1.4-0.5,2.8-0.9,4.2c-0.3,1.3-0.7,2.6-1.1,3.9c-0.4,1.3-0.9,2.6-1.4,3.9c-0.3,0.6-0.5,1.3-0.8,1.9
		c-0.6,1.2-1.4,2.5-2.8,2.7c-0.1,0-0.2,0-0.3,0C282.4,188.2,281.7,187.7,281.2,187.1z"/>
</g>
<g id="Vector_layer_32_">
	<path class="st1" d="M286.3,217.6l-0.4,0c-0.3,0-0.6,0-1,0c-0.5,0-0.9,0-1.4,0c-0.8,0-1.3-0.6-1.3-1.2c0-0.1,0-0.3,0.1-0.4
		c-0.7-0.4-1.3-1.1-2-2c-1-1.4-1.5-2.5-1.5-3.7c0-1.1,0-2.1,0-3.2l0-0.4c0-1.7,0.1-3.2,0.2-4.5l0,0.2l0-0.2l0-0.2c0-0.1,0-0.3,0-0.4
		l0,0c0.3-4.5,0.8-9.2,2.2-13.8c0-0.2,0-0.3,0-0.5c0.1-0.8,0.2-1.5,0.4-2.4l0-0.1c0-0.3,0.1-0.6,0.2-0.9c0-0.2,0.1-0.4,0.2-0.6
		l0.1-0.2c0.1-0.2,0.1-0.4,0.2-0.6c0-0.3,0.1-0.5,0.1-0.7l0-0.2c0.1-0.2,0.1-0.5,0.2-0.7l0-0.1c0.5-1.2,1-2.5,1.8-3.6
		c0.4-0.6,0.9-1.1,1.4-1.7c1-1.1,2.2-2,3.6-2.7c0.7-0.3,1.4-0.6,2-0.9c1.2-0.5,2.5-0.7,3.9-0.7c0.4,0,0.8,0,1.2,0.1
		c1.3,0.1,2.5,0.7,3.6,1.3c1.4,0.7,2.5,1.8,3.5,3.2c0.8,1.2,1.1,2.5,1.5,3.7c0.1,0.6,0.2,1.2,0.3,2l0,0.4c0,0.5,0.1,1.1,0,1.6l0,0.1
		c0,0.6-0.1,1.3-0.2,1.9c-0.5,2.5-1.5,4.9-2.4,7.2l-0.2,0.5c-0.8,1.9-1.6,3.9-2.5,5.8c-0.3,0.6-0.5,1.1-0.8,1.7
		c-0.2,0.4-0.4,0.8-0.6,1.2c-0.4,0.8-0.8,1.8-1.3,2.9c0,0,0-0.1,0-0.1l-0.1,0.2l-0.2,0.6c-0.2,0.5-0.4,1.1-0.5,1.6
		c-0.2,0.6-0.4,1.2-0.5,1.9l-0.1,0.5c-0.3,1.1-0.5,2.3-1,3.4c-0.2,0.6-0.5,1.2-0.8,1.8c-0.4,0.7-0.7,1.2-1.1,1.6
		c-1.2,1.3-3.1,1.4-5.1,1.5c-0.2,0-0.4,0-0.6,0C287.1,217.6,286.7,217.6,286.3,217.6z"/>
</g>
<g id="Vector_layer_31_">
	<path class="st1" d="M149.8,221.5c-1.8-0.1-3.7-0.3-4.9-1.6c-0.4-0.4-0.7-1-1.1-1.7c-0.3-0.6-0.6-1.2-0.8-1.8
		c-0.4-1.1-0.7-2.3-0.9-3.5l-0.1-0.5c-0.1-0.6-0.3-1.3-0.5-1.9c-0.1-0.6-0.3-1.1-0.5-1.7l-0.1-0.4l-0.2-0.5l0.1,0.1
		c-0.5-1.1-0.9-2.1-1.3-3c-0.2-0.4-0.4-0.8-0.6-1.2c-0.3-0.6-0.6-1.2-0.8-1.8c-0.9-2-1.7-4.1-2.4-6l-0.2-0.4
		c-0.9-2.4-1.9-4.9-2.4-7.5c-0.1-0.7-0.2-1.4-0.2-2l0-0.2c0-0.6,0-1.1,0.1-1.7l0-0.4c0.1-0.8,0.1-1.5,0.3-2.1
		c0.3-1.3,0.7-2.6,1.4-3.8c0.9-1.5,2-2.6,3.3-3.3c1.1-0.6,2.2-1.2,3.5-1.4c0.4-0.1,0.8-0.1,1.2-0.1c1.3,0,2.6,0.2,3.7,0.7
		c0.7,0.3,1.3,0.6,1.9,0.9c1.4,0.7,2.5,1.6,3.5,2.8c0.5,0.6,0.9,1.2,1.3,1.8c0.8,1.2,1.3,2.5,1.8,3.8l0,0c0.1,0.2,0.2,0.5,0.2,0.7
		l0.1,0.2c0.1,0.2,0.1,0.4,0.1,0.7c0,0.4-0.1,0.7-0.2,1c0,0.1-0.1,0.1-0.1,0.1l0.5,1.4l0.5,1.4c1.7,5.3,2.2,10.9,2.6,16.1
		c0,0.1,0,0.3,0,0.4c0,0.1,0,0.2,0,0.4c0.1,1.4,0.1,2.9,0.2,4.5l0,0.5c0,1.1,0,2.2,0,3.3c-0.1,1.2-0.5,2.4-1.5,3.9
		c-0.6,0.9-1.3,1.6-1.9,2.1c0.1,0.1,0.1,0.3,0.1,0.4c0,0.7-0.6,1.3-1.3,1.3c-0.4,0-0.8,0-1.1,0c-0.4,0-0.8,0-1.1,0l-0.4,0
		c-0.4,0-0.8,0-1.2,0C150.2,221.5,150,221.5,149.8,221.5z"/>
</g>
<g id="Vector_layer_30_">
	<path class="st4" d="M227.4,154.2c-1.5,0-3-0.1-4.5-0.1c0,0,0,0,0,0c-1.7-0.1-3.3-0.2-5-0.3c-0.8,0-1.6-0.1-2.4-0.1
		c-0.5-0.1-1.1-0.1-1.6-0.1c0,0,0,0,0,0c0,0,0,0,0,0c0,0-0.1,0-0.1,0c0,0,0,0,0,0s0,0,0,0l0,0l0,0l0,0c-1.4-0.1-2.9-0.3-4.3-0.5
		c-1.5-0.2-3.1-0.4-4.6-0.6c-0.4-0.1-0.7-0.1-1.1-0.2c-0.9-0.2-1.8-0.4-2.7-0.6c-1.6-0.3-3.3-0.6-4.9-1c-1.2-0.3-2.4-0.6-3.6-0.9
		c-2-0.4-4-0.8-5.9-1.2c-2.5-0.6-4.9-1.3-7.3-2c0,0,0.1,0,0.1,0c0,0,0,0-0.1,0c-1.4-0.4-2.8-0.9-4.2-1.3c-0.5-0.2-1-0.3-1.4-0.5
		c-0.8-0.3-1.5-0.7-2.2-1c-1.5-0.7-3-1.5-4.5-2.3c-1.5-0.8-3-1.6-4.5-2.4c-1.8-1-3.5-2-5.1-3.2c-0.2-0.2-0.5-0.3-0.7-0.5
		c0.1,0.1,0.1,0.1,0.2,0.2c0.5,0.6,0.5,1.5,0,2.1c-0.5,0.6-1.4,0.6-1.9,0c-1.3-1.4-2.4-2.9-3.6-4.5c-0.5-0.7-0.9-1.4-1.4-2.1
		c-0.4-0.6-0.7-1.1-1-1.7c-0.5-1-0.9-2-1.2-3.1c-0.6-2.3-0.5-4.8-0.5-7.1c0-1.8,0.1-3.7,0.3-5.5c0.1-1,0.2-2,0.3-2.9
		c0.1-0.9,0.2-1.9,0.4-2.8c0.2-1.1,0.3-2.1,0.6-3.2c0.2-1,0.4-1.9,0.6-2.9c0.2-0.9,0.3-1.7,0.5-2.6s0.4-1.7,0.6-2.6
		c0.2-0.8,0.4-1.7,0.6-2.5c0.3-0.9,0.6-1.7,0.9-2.5c0.7-1.6,1.4-3.2,2.1-4.9c0.3-0.8,0.7-1.5,1.1-2.2c0.4-0.8,0.9-1.5,1.4-2.2
		c0.1-0.2,0.3-0.4,0.4-0.6c0.9-1.4,1.6-2.9,2.7-4.2c0.4-0.4,0.7-0.9,1.2-1.2c0.3-0.2,0.6-0.5,0.9-0.7c0.7-0.5,1.5-1.1,2.2-1.6
		c1.4-1,2.9-1.8,4.4-2.5s3.1-1.4,4.7-1.8c1.1-0.3,2.2-0.5,3.4-0.7c1.1-0.2,2.2-0.3,3.4-0.4c1.1,0,2.2,0,3.3,0.1
		c1.1,0.1,2.3,0.2,3.4,0.3c1,0.1,2,0.1,3.1,0.1c0.8-0.1,1.5-0.2,2.3-0.3c2.3-0.6,4.6-1.4,6.9-2.2c3-1.1,6-2.4,8.9-3.7
		c1.5-0.7,3.1-1.3,4.7-1.9c0.9-0.3,1.7-0.6,2.6-0.8c0.8-0.2,1.6-0.4,2.3-0.6c0.9-0.2,1.9-0.4,2.8-0.7c0.9-0.3,1.9-0.5,2.8-0.8
		c1-0.2,2.1-0.5,3.1-0.6c1-0.1,1.9-0.2,2.9-0.2c0.3,0,0.6-0.1,0.9-0.1c-0.1,0-0.1,0-0.2,0c1.6-0.1,3.2-0.4,4.9-0.6
		c1.6-0.2,3.2-0.4,4.8-0.5c1.7-0.2,3.3-0.3,5-0.4c1.7-0.1,3.3-0.1,5-0.1c3.2,0.1,6.5,0.3,9.7,0.3c3.3,0.1,6.6,0.3,9.9,0.7
		c1.6,0.2,3.2,0.6,4.8,0.9c1.6,0.3,3.1,0.8,4.7,1.2c1.6,0.5,3.2,1,4.8,1.5c1.6,0.5,3.2,1.1,4.7,1.8c0.8,0.4,1.5,0.8,2.3,1.3
		c0.7,0.4,1.4,0.9,2,1.4c1.4,1.1,2.5,2.3,3.7,3.6c1.1,1.3,2.1,2.7,3.2,4c0.5,0.7,1,1.3,1.5,2c0.5,0.7,0.9,1.5,1.4,2.2
		c0.7,1.1,1.3,2.3,1.8,3.5c0.6,1.3,1.1,2.7,1.5,4.1c0.3,1.4,0.6,2.8,0.8,4.2c0.2,1.5,0.3,2.9,0.4,4.4c0,0,0-0.1,0-0.1
		c0,0.9,0.1,1.8,0.1,2.8c0,0.9,0,1.8,0,2.6c0,1.7,0,3.5-0.3,5.2c-0.2,1.7-0.5,3.4-0.8,5.1c-0.2,0.9-0.4,1.8-0.6,2.6
		c-0.2,0.8-0.5,1.7-0.7,2.5c-0.3,1.1-0.7,2.1-1.1,3.1c-0.4,0.9-0.9,1.8-1.3,2.8c0,0,0,0,0-0.1c-0.4,0.9-0.9,1.8-1.3,2.7l0,0
		c-0.7,1.5-1.5,3-2.3,4.5c-0.4,0.8-0.9,1.6-1.3,2.4c-0.4,0.8-1,1.4-1.5,2.1c-1.1,1.3-2.4,2.4-3.5,3.6c-1.2,1.2-2.3,2.5-3.5,3.7
		c-1.3,1.3-2.6,2.5-4,3.6c-1.4,1.1-2.9,2.1-4.4,3.1c-1.5,0.9-3.1,1.5-4.7,2.2c-1.5,0.6-3.1,1.2-4.6,1.8c-0.1,0-0.2,0.1-0.2,0.1
		c-0.9,0.2-1.7,0.4-2.6,0.6c0,0,0.1,0,0.2,0c-1.9,0.4-3.8,0.7-5.6,1.1c0,0,0.1,0,0.2,0c-0.5,0.1-1.1,0.2-1.7,0.4c0,0,0.1,0,0.2,0
		c-1.5,0.3-3,0.6-4.6,0.8c0,0,0.1,0,0.2,0c-1.6,0.2-3.2,0.4-4.8,0.7c-1.6,0.2-3.2,0.5-4.8,0.7c-2.1,0.2-4.2,0.4-6.4,0.6
		c-1.6,0.1-3.2,0.2-4.8,0.2c-1.4,0.1-2.8,0.2-4.3,0.2C230.1,154.3,228.7,154.3,227.4,154.2z"/>
</g>
<g id="Vector_layer_29_">
	<path class="st5" d="M253.3,179.9c0-4.1-2.4-7.4-5.3-7.4c-2.9,0-5.3,3.3-5.3,7.4s2.4,7.4,5.3,7.4
		C250.9,187.3,253.3,184,253.3,179.9z"/>
</g>
<g id="Vector_layer_28_">
	<path class="st5" d="M198.3,179.9c0-4.1-2.4-7.4-5.3-7.4c-2.9,0-5.3,3.3-5.3,7.4s2.4,7.4,5.3,7.4
		C195.9,187.3,198.3,184,198.3,179.9z"/>
</g>
<g id="Vector_layer_27_">
	<path class="st5" d="M219.3,220.6c-0.1-0.4,0.1-0.8,0.5-0.9c0.2-0.1,0.4-0.1,0.5-0.1c0.3-0.1,0.6-0.1,0.9-0.2
		c0.3-0.1,0.5-0.2,0.8-0.4c0.1,0,0.1-0.1,0.2-0.1c0.2-0.2,0.4-0.3,0.7-0.5c0,0,0,0,0,0c0.4-0.3,0.8-0.7,1.1-1.1c0,0,0,0,0,0
		c0,0,0,0,0,0s0,0,0,0c0,0,0,0,0,0c0.2-0.2,0.4-0.4,0.5-0.7c0.2-0.3,0.4-0.6,0.5-0.8c0.1-0.2,0.2-0.4,0.3-0.6
		c0.1-0.3,0.1-0.6,0.2-0.9c0-0.2,0.1-0.5,0.1-0.7c0-0.2,0.1-0.4,0.1-0.7c0-0.4,0-0.8,0-1.1v0c0-0.1,0-0.1,0-0.2v0c0,0,0-0.1,0-0.1
		c0,0,0,0,0,0s0,0,0,0c0-0.1,0-0.1,0-0.2c0,0,0,0.1,0,0.1c0-0.4-0.1-0.8-0.1-1.2c-0.1-0.4-0.1-0.9-0.2-1.3c-0.3-1.5-0.6-3-0.9-4.5
		c-0.1-0.8-0.2-1.6-0.4-2.5c-0.1-0.8-0.2-1.6-0.2-2.3c-0.1-1.6-0.2-3.2-0.2-4.7c0-1.5,0-3.1,0.1-4.6l0,0c0-0.2,0-0.3,0-0.5v0
		c0.1-0.8,0.1-1.6,0.2-2.4v0c0-0.1,0-0.3,0-0.4c0,0,0,0,0,0v0c0,0,0-0.1,0-0.1l0,0c0,0,0,0,0,0c0,0,0,0,0-0.1
		c-0.1-0.2-0.1-0.4,0-0.6v0c0.1-0.3,0.3-0.5,0.6-0.5c0.3-0.1,0.6,0.1,0.8,0.4c0.1,0.2,0.1,0.5,0.1,0.7c0,0,0,0,0,0c0,0,0,0,0,0.1
		c0,0,0,0,0,0c0,0,0,0.1,0,0.1v0c0,0.1,0,0.3,0,0.4c0,0,0,0,0,0v0c0,0,0,0,0,0c0,0,0,0,0,0c-0.1,0.7-0.1,1.4-0.2,2.2c0,0,0,0,0,0
		c0,0.1,0,0.2,0,0.3v0c0,0,0,0.1,0,0.1c0,0,0,0,0,0v0c0,0.1,0,0.3,0,0.4v0c0,0,0,0,0,0v0l0,0c-0.1,1.5-0.1,3-0.1,4.4
		c0,0.8,0,1.5,0,2.3c0,0.8,0.1,1.5,0.1,2.3v0c0,0,0,0,0,0c0,0,0,0.1,0,0.1c0,0,0,0,0,0c0.2,2.4,0.6,4.8,1,7.2c0,0,0-0.1,0-0.1
		c0.2,0.8,0.4,1.6,0.5,2.4c0.1,0.8,0.2,1.6,0.3,2.3c0,0,0,0,0,0c0,0,0,0,0,0c0,0,0,0,0,0c0,0,0,0,0,0c0,0.1,0,0.1,0,0.2l0,0
		c0,0,0,0,0,0c0,0,0,0.1,0,0.1v0c0,0.5,0,1,0,1.5c-0.1,0.6-0.1,1.2-0.3,1.8c-0.2,1.2-1,2.4-1.8,3.3c-0.4,0.4-0.8,0.8-1.2,1.2
		c-0.4,0.4-0.8,0.7-1.3,0.9c-0.5,0.2-0.9,0.4-1.4,0.6c-0.3,0.1-0.6,0.1-0.9,0.2c0,0,0,0-0.1,0c-0.1,0-0.1,0-0.2,0
		C219.7,221.1,219.4,220.9,219.3,220.6z"/>
</g>
<g id="Vector_layer_26_">
	<path class="st5" d="M220.7,245.8c-0.7-0.1-1.4-0.1-2.1-0.3c-0.6-0.1-1.3-0.2-1.9-0.4c-0.4-0.1-0.7-0.2-1.1-0.4
		c-0.3-0.1-0.7-0.3-1-0.4c-0.6-0.2-1.2-0.5-1.7-0.8c-0.6-0.3-1.2-0.7-1.7-1.1c-0.5-0.4-1-0.8-1.5-1.2c-0.5-0.4-0.9-0.9-1.3-1.4
		c-0.3-0.5-0.6-1.1-0.9-1.6c-0.1-0.2-0.2-0.5-0.3-0.8c-0.1-0.3-0.2-0.6-0.2-0.9c-0.1-0.4-0.1-0.7-0.1-1.1c0-0.3,0-0.6,0.1-0.9
		c0.1-0.2,0.1-0.5,0.3-0.7c0.1-0.2,0.2-0.4,0.4-0.5c0.1-0.1,0.3-0.3,0.4-0.4h0h0c0,0,0,0,0,0s0,0,0,0c0,0,0,0,0,0c0,0,0,0,0,0l0,0
		c0,0,0,0,0,0l0,0c0.2-0.2,0.5-0.4,0.8-0.6c0.1-0.1,0.1-0.1,0.2-0.1c0.1-0.1,0.2-0.1,0.3-0.1c0,0,0,0,0,0c0,0,0,0,0,0s0,0,0,0
		c0,0,0,0,0,0c0.1,0,0.2-0.1,0.3-0.1l0,0l0,0c0.1,0,0.3-0.1,0.4-0.1c0.2,0,0.4-0.1,0.6-0.1c0,0,0,0,0,0c0,0,0,0,0,0c0,0,0,0,0,0
		s0,0,0,0s0,0,0,0c0,0,0.1,0,0.1,0c0,0,0,0,0,0c0.1,0,0.3,0.1,0.4,0.1c0.3,0.1,0.5,0.2,0.8,0.3c0.1,0,0.1,0.1,0.1,0.1
		c0.1,0,0.1,0.1,0.2,0.1c0,0,0.1,0.1,0.1,0.1c0.1,0,0.1,0.1,0.2,0.1c0,0,0,0,0,0l0,0c0.2,0.1,0.4,0.3,0.7,0.5
		c0.1,0.1,0.3,0.2,0.4,0.2c0.1,0.1,0.2,0.1,0.3,0.2c0.2,0.1,0.4,0.3,0.7,0.4c0.2,0.1,0.4,0.2,0.7,0.4c0,0,0,0,0,0
		c0.1,0.1,0.2,0.1,0.4,0.2c0.1,0.1,0.3,0.2,0.5,0.2c0.2,0.1,0.4,0.2,0.6,0.2c0.5,0.2,1,0.4,1.5,0.6c0.3,0.1,0.6,0.2,1,0.3
		c0.2,0,0.4,0.1,0.6,0.1c0.8,0.1,1.5,0.2,2.2,0.2c0,0,0,0,0,0c1.4,0.1,2.8,0.1,4.1,0.1c0.6,0,1.2,0,1.8,0.1c0.3,0,0.6,0,0.9,0
		c0.4,0,0.7,0.1,1,0.1c0.3,0,0.6,0.1,0.9,0.2c0.3,0.1,0.6,0.1,0.9,0.2c0.4,0.1,0.8,0.3,1.1,0.6c0.2,0.2,0.4,0.4,0.6,0.6
		c0.1,0.1,0.2,0.3,0.3,0.4c0.1,0.2,0.2,0.5,0.3,0.7c0.1,0.2,0.1,0.4,0.1,0.7c0.1,0.3,0.1,0.7,0,1c0,0.1,0,0.2,0,0.3c0,0,0,0.1,0,0.1
		c0,0.1,0,0.1-0.1,0.1c-0.1,0.1-0.1,0.3-0.2,0.4c-0.1,0.1-0.1,0.2-0.2,0.3c-0.1,0.1-0.1,0.2-0.2,0.3l0,0l0,0
		c-0.1,0.1-0.2,0.3-0.3,0.4c0,0,0,0,0.1-0.1c-0.1,0.1-0.3,0.3-0.4,0.4c-0.1,0.1-0.3,0.2-0.4,0.3c0,0,0,0,0.1,0c0,0-0.1,0.1-0.1,0.1
		c-0.1,0.1-0.3,0.1-0.4,0.2c-0.3,0.1-0.6,0.3-0.9,0.4c-0.4,0.2-0.9,0.3-1.4,0.5c-0.9,0.3-1.8,0.5-2.7,0.7c0,0,0,0,0,0
		c-0.7,0.1-1.3,0.3-2,0.3c-0.7,0.1-1.4,0.1-2.1,0.1c-0.4,0-0.8,0-1.1,0C221.2,245.8,221,245.8,220.7,245.8z"/>
</g>
<g id="Vector_layer_25_">
	<path class="st6" d="M287.2,207.2c0-0.1,0-0.2,0-0.4c0-0.1,0.1-0.2,0.2-0.2c0.1,0,0.1-0.1,0.2-0.1c0.3-0.2,0.7-0.4,1-0.6
		c0.1-0.1,0.3-0.2,0.4-0.3c0.1-0.1,0.2-0.2,0.3-0.3c0.1-0.1,0.1-0.1,0.2-0.2l0.1-0.1h0c0.1-0.2,0.1-0.4,0.2-0.6l0.1-0.2l0.1-0.5
		l0.1-0.5l0.1-0.3c0-0.2,0.1-0.4,0.2-0.6c0.1-0.3,0.1-0.6,0.2-0.9l0.1-0.6l0.2-1c0.2-0.9,0.5-1.9,0.8-2.7c0.1-0.4,0.3-0.8,0.5-1.2
		l0.1-0.2c0.2-0.4,0.3-0.7,0.5-1.1l0.1-0.1l0.1-0.2l0.1-0.1c0.2-0.3,0.4-0.7,0.5-1l0.1-0.2c0.2-0.4,0.4-0.7,0.6-1.1
		c0.2-0.4,0.4-0.8,0.6-1.2c0.2-0.4,0.3-0.8,0.5-1.1c0.1-0.3,0.2-0.6,0.3-1c0-0.2,0.1-0.4,0.1-0.6c0-0.2,0-0.4,0-0.6
		c0-0.2,0-0.5-0.1-0.7c0-0.2-0.1-0.4-0.1-0.6c0-0.2-0.1-0.3-0.2-0.5c-0.1-0.1-0.1-0.2-0.2-0.4c0-0.1-0.1-0.1-0.2-0.2
		c0-0.1-0.1-0.1-0.2-0.2c-0.1-0.1-0.2-0.2-0.3-0.2c-0.1-0.1-0.2-0.1-0.4-0.2c-0.1-0.1-0.2-0.1-0.3-0.1c-0.2-0.1-0.3-0.1-0.4-0.1
		c-0.1,0-0.3-0.1-0.5-0.1h0l0,0l0,0h-0.2h-0.2c-0.1,0-0.2,0-0.4,0.1c-0.2,0-0.4,0.1-0.5,0.1l-0.1,0.1c-0.1,0-0.2,0.1-0.3,0.1
		l-0.1,0.1c-0.2,0.1-0.4,0.1-0.5,0.2c-0.2,0.1-0.4,0.2-0.5,0.3c-0.1,0.1-0.3,0.2-0.4,0.4l-0.2,0.3l-0.2,0.2l-0.1,0.2
		c-0.1,0.1-0.1,0.2-0.2,0.2l-0.1,0.1c-0.1,0.2-0.1,0.2-0.2,0.3c0,0.1-0.1,0.1-0.1,0.2l-0.1,0.1c0,0.1-0.1,0.2-0.1,0.4
		c0,0.3-0.2,0.5-0.5,0.5c-0.2,0-0.5-0.2-0.5-0.4c0-0.1,0-0.2,0.1-0.3c0.1-0.2,0.2-0.4,0.3-0.6c0.1-0.2,0.3-0.5,0.4-0.7l0.3-0.4
		c0-0.1,0.1-0.1,0.2-0.2l0.1-0.1c0.3-0.4,0.7-0.7,1.1-1c0.4-0.2,0.8-0.4,1.1-0.6c0.3-0.1,0.6-0.2,0.9-0.3c0.3-0.1,0.7-0.1,1-0.1
		c0.1,0,0.3,0,0.4,0c0.5,0,1,0.2,1.5,0.5c0.4,0.2,0.8,0.6,1.1,1c0.3,0.4,0.5,0.9,0.7,1.6c0.1,0.6,0.2,1.2,0.1,1.8
		c0,0.5-0.2,1-0.4,1.6c-0.1,0.4-0.3,0.9-0.5,1.4c-0.2,0.5-0.5,1-0.7,1.5c-0.2,0.4-0.5,0.8-0.7,1.3l-0.4,0.8l-0.1,0.2l0,0.1l-0.1,0.2
		l-0.1,0.2l0,0c-0.3,0.6-0.6,1.3-1,2.2l-0.1,0.2c-0.1,0.4-0.2,0.8-0.4,1.1c-0.1,0.4-0.2,0.9-0.3,1.4l0,0.2l0,0.2l-0.1,0.6
		c-0.1,0.6-0.2,1.1-0.4,1.7c-0.1,0.4-0.2,0.8-0.3,1.3l-0.1,0.3c-0.1,0.3-0.1,0.6-0.2,0.8c0,0.2-0.1,0.4-0.2,0.6
		c-0.1,0.1-0.2,0.3-0.3,0.4c-0.3,0.3-0.6,0.5-0.9,0.7c-0.2,0.2-0.5,0.3-0.7,0.4s-0.4,0.2-0.6,0.3c0,0-0.1,0-0.2,0
		C287.4,207.5,287.3,207.4,287.2,207.2z"/>
</g>
<g id="Vector_layer_24_">
	<path class="st6" d="M150.6,210.5c0.1-0.1,0.1-0.2,0-0.4c-0.1-0.1-0.1-0.2-0.2-0.2c-0.1,0-0.1-0.1-0.2-0.1c-0.3-0.2-0.7-0.4-1-0.6
		c-0.1-0.1-0.3-0.2-0.4-0.3c-0.1-0.1-0.2-0.2-0.3-0.3c-0.1-0.1-0.1-0.1-0.2-0.2l-0.1-0.1h0c-0.1-0.2-0.1-0.4-0.2-0.6l-0.1-0.2
		l-0.1-0.5l-0.1-0.5l-0.1-0.3c-0.1-0.2-0.1-0.4-0.2-0.6c-0.1-0.3-0.1-0.6-0.2-0.9l-0.1-0.6l-0.2-1c-0.2-0.9-0.5-1.9-0.8-2.7
		c-0.1-0.4-0.3-0.8-0.5-1.2l-0.1-0.2c-0.2-0.4-0.3-0.7-0.5-1.1l-0.1-0.1l-0.1-0.2l-0.1-0.1c-0.2-0.3-0.4-0.7-0.5-1l-0.1-0.2
		c-0.2-0.4-0.4-0.7-0.6-1.1c-0.2-0.4-0.4-0.8-0.6-1.2c-0.2-0.4-0.3-0.8-0.5-1.1c-0.1-0.3-0.2-0.6-0.3-1c0-0.2-0.1-0.4-0.1-0.6
		c0-0.2,0-0.4,0-0.6c0-0.2,0.1-0.5,0.1-0.7c0-0.2,0.1-0.4,0.1-0.6c0.1-0.2,0.1-0.3,0.2-0.5c0.1-0.1,0.1-0.2,0.2-0.4
		c0.1-0.1,0.1-0.1,0.2-0.2c0.1-0.1,0.1-0.1,0.2-0.2c0.1-0.1,0.2-0.2,0.3-0.2c0.1-0.1,0.2-0.1,0.4-0.2c0.1-0.1,0.2-0.1,0.3-0.1
		c0.2-0.1,0.3-0.1,0.4-0.1c0.1,0,0.3-0.1,0.5-0.1h0l0,0l0,0h0.2h0.2c0.1,0,0.2,0,0.4,0.1c0.2,0,0.4,0.1,0.5,0.1l0.1,0.1
		c0.1,0,0.2,0.1,0.3,0.1l0.1,0.1c0.2,0.1,0.4,0.1,0.5,0.2c0.2,0.1,0.4,0.2,0.6,0.3c0.1,0.1,0.3,0.2,0.4,0.4l0.2,0.3l0.2,0.2l0.1,0.2
		c0.1,0.1,0.1,0.2,0.2,0.2l0.1,0.1c0.1,0.2,0.1,0.2,0.2,0.3c0,0.1,0.1,0.1,0.1,0.2l0.1,0.1c0.1,0.1,0.1,0.2,0.1,0.4
		c0.1,0.3,0.2,0.5,0.5,0.5c0.2,0,0.4-0.2,0.4-0.4c0-0.1,0-0.2-0.1-0.3c-0.1-0.2-0.2-0.4-0.3-0.6c-0.1-0.2-0.3-0.5-0.4-0.7l-0.3-0.4
		c-0.1-0.1-0.1-0.1-0.2-0.2l-0.1-0.1c-0.3-0.4-0.7-0.7-1.1-1c-0.4-0.2-0.8-0.4-1.1-0.6c-0.3-0.1-0.6-0.2-0.9-0.3
		c-0.3-0.1-0.7-0.1-1-0.1c-0.1,0-0.3,0-0.4,0c-0.5,0-1,0.2-1.5,0.5c-0.4,0.2-0.8,0.6-1.1,1c-0.3,0.4-0.5,0.9-0.7,1.6
		c-0.1,0.6-0.2,1.2-0.1,1.8c0.1,0.5,0.2,1,0.4,1.6c0.1,0.4,0.3,0.9,0.5,1.4c0.2,0.5,0.5,1,0.7,1.5c0.2,0.4,0.4,0.8,0.7,1.3l0.4,0.8
		l0.1,0.2l0.1,0.1l0.1,0.2l0.1,0.2l0,0c0.3,0.6,0.6,1.3,0.9,2.2l0.1,0.2c0.1,0.4,0.2,0.8,0.4,1.1c0.1,0.4,0.2,0.9,0.3,1.4l0,0.2
		l0,0.2l0.1,0.6c0.1,0.6,0.2,1.1,0.4,1.7c0.1,0.4,0.2,0.8,0.3,1.3l0.1,0.3c0.1,0.3,0.1,0.6,0.2,0.8c0.1,0.2,0.1,0.4,0.2,0.6
		c0.1,0.1,0.2,0.3,0.3,0.4c0.3,0.3,0.6,0.5,0.9,0.7c0.2,0.2,0.5,0.3,0.7,0.4s0.4,0.2,0.6,0.3c0.1,0,0.1,0,0.2,0
		C150.4,210.8,150.5,210.7,150.6,210.5z"/>
</g>
<g id="Vector_layer_23_">
	<path class="st7" d="M210.8,437.5c-4.7-0.2-9.5-0.4-14.2-0.9c0.1,0,0.3,0,0.4,0c-3.9-0.5-7.8-0.9-11.7-1.3c-3.9-0.5-7.9-1-11.8-1.7
		c-3.1-0.5-6.1-1-9.1-1.7c-0.3-0.1-0.6-0.2-0.8-0.2l0,0l0,0c0,0,0,0,0,0c0,0,0,0,0,0c-0.1,0-0.2,0-0.2-0.1c-0.1,0-0.3-0.1-0.4-0.1
		c0,0,0,0,0,0c-4.8-1.5-9.5-3-14.2-4.6c-3.2-1.1-6.5-2.1-9.8-3.1c-1.5-0.5-3.1-1.1-4.6-1.7c-1.5-0.6-3-1.2-4.5-1.8
		c-3-1.2-6-2.4-8.9-3.7c-0.3-0.1-0.6-0.3-0.9-0.4c-0.1-0.1-0.3-0.2-0.4-0.3c-1.2-0.8-2.4-1.5-3.7-2.3c-2.5-1.5-5-2.9-7.6-4.4
		c-1.6-1-3.2-2-4.7-3.1c-1.6-1.1-3.2-2.2-4.8-3.4c0,0-0.1,0-0.1-0.1c-1.2-0.8-2.4-1.7-3.6-2.5c0.1,0,0.1,0.1,0.1,0.1
		c-0.6-0.4-1.1-0.8-1.7-1.2c0,0,0,0,0,0c-1.1-0.8-2.2-1.5-3.3-2.4c-1-0.8-2-1.6-3-2.4c-0.7-0.6-1.4-1.2-2.2-1.8
		c-2.3-1.9-4.5-3.8-6.7-5.7c-2.1-1.9-4.2-3.7-6.2-5.6c0,0,0,0,0.1,0.1c-1.4-1.3-2.7-2.6-4.1-4c-1.3-1.4-2.6-2.8-4-4.1
		c-1.7-1.7-3.5-3.4-5.3-5c0.4-0.4,0.8-0.7,1.1-1.1l1.2-1.1c1.4-1.3,2.9-2.7,4.4-4l0.6-0.5l0.5-0.4l0.7-0.5c0.7-0.5,1.5-1,2.2-1.5
		c2.8-1.9,5.8-3.8,8.9-5.7c1-0.5,1.9-1.1,2.9-1.6c0.7-0.4,1.5-0.9,2.2-1.3l1-0.6c1.9-1.1,4-2.2,5.7-3.2c1.6-0.9,3.2-1.7,4.9-2.6
		c0.6-0.3,1.2-0.6,1.8-1l0.5-0.3c0.6-0.3,1.2-0.6,1.7-0.9l0.5-0.2l0.7-0.3l0.7-0.3c1-0.4,2-0.9,3.1-1.2c0.9-0.4,1.8-0.7,2.7-1
		c1.9-0.7,3.7-1.4,5.6-2.2c1.1-0.5,2.2-1,3.3-1.5c1.1-0.5,2.1-1,3-1.3c1.3-0.5,2.6-0.9,3.9-1.4c0.9-0.3,1.7-0.6,2.6-0.9
		c1.2-0.4,2.4-0.9,3.6-1.3c0.9-0.2,1.7-0.5,2.6-0.7c2.7-0.8,4.8-1.4,6.8-1.9l1.5-0.3c0.9-0.2,1.8-0.4,2.7-0.6
		c1.1-0.2,2.1-0.5,3.2-0.8l1.2-0.3c0.3-0.1,0.6-0.1,0.8-0.2c0.5-0.1,1-0.2,1.5-0.3c0.4-0.1,0.8-0.2,1.1-0.2l1.4-0.3l1.1-0.3
		c1.8-0.4,3.6-0.8,5.4-1.3l0.1,0l0.1,0c0.5-0.1,1-0.1,1.5-0.2l0.2,0c1.3-0.2,2.4-0.2,3.6-0.3h0.3c1,0,2,0.1,2.9,0.2
		c1.9,0.3,3.9,0.5,5.8,0.9c1.5,0.3,3.2,0.8,5.2,1.7l1.9,0.8c1.1,0.5,2.1,1,3.2,1.4c0.9,0.4,1.9,0.9,2.8,1.3c0.8,0.4,1.6,0.8,2.4,1.1
		c1.7,0.7,3.3,1.2,5.3,1.8c2,0.6,3.8,1.2,5.4,1.6c0.6,0.1,1.1,0.2,1.7,0.3c0.6,0.2,1.2,0.4,1.7,0.5c0.9,0.2,1.9,0.4,2.8,0.6
		c0.7,0.1,1.3,0.2,2,0.4l0.6,0.1l0.9,0.2c0.6,0.1,1.1,0.2,1.7,0.3c1.6,0.2,3.2,0.3,4.8,0.4l0.6,0c0.3,0,0.6,0,0.9,0.1
		c0.7,0.1,1.4,0.1,2.1,0.1h0.3c0.4,0,0.9,0,1.4,0c0.2,0,0.4,0,0.6,0c1.1,0.1,2.4,0.2,3.7,0.2c0.6,0,1.2,0,1.8-0.1
		c1-0.1,1.9-0.2,2.8-0.3c0.7-0.1,1.4-0.3,2-0.4l0.6-0.1l0.9-0.2c0.6-0.1,1.2-0.2,1.8-0.4c0.9-0.2,1.8-0.4,2.9-0.8l-0.2,0.1l1.4-0.4
		c1.6-0.5,3.2-0.9,4.8-1.5c1.6-0.6,3.2-1.4,5-2.2c0.8-0.4,1.5-0.8,2.3-1.1c0.8-0.4,1.6-0.8,2.5-1.2c1.2-0.6,2.5-1.3,3.6-2
		c0.7-0.3,1.4-0.7,2.1-1c0.6-0.3,1.2-0.7,1.8-1c0.4-0.2,0.7-0.4,1.1-0.6c2.2-1.2,4.1-2.1,6-3c0.5-0.2,1-0.5,1.6-0.8l1-0.5
		c1.4-0.4,2.9-0.7,4.5-1c1.6-0.3,3.6-0.6,5.6-0.8c1.7-0.2,3.5-0.3,5.4-0.3c1.7,0,3.5,0.1,5.4,0.3c1.6,0.2,3.6,0.4,5.5,0.8
		c1.7,0.3,3.5,0.7,5.6,1.2l0.4,0.1c1.7,0.4,3.4,0.8,5.1,1.3c1.5,0.4,3,0.9,4.4,1.4l0.3,0.1l0.3,0.1c0.6,0.3,1.3,0.5,2,0.8
		c1.3,0.5,2.8,1.2,4.3,1.7l1.8,0.7c0.9,0.3,1.8,0.6,2.6,1l-0.2-0.1c4.9,1.9,9.9,4.1,15.3,6.8l0,0c0,0,0,0,0,0
		c0.5,0.3,1.1,0.6,1.7,0.9c0.8,0.4,1.7,0.9,2.5,1.3c1.1,0.6,2.3,1.1,3.4,1.7l1,0.5c0.6,0.3,1.3,0.6,1.9,0.9c0.8,0.4,1.6,0.8,2.4,1.2
		c1.4,0.7,2.8,1.4,4.2,2l0.1,0.1c1,0.5,1.8,0.9,2.7,1.4c0.7,0.4,1.4,0.7,2.1,1.1l1,0.5c1.4,0.7,2.8,1.4,4.1,2l0.4,0.2
		c0.8,0.4,1.6,0.8,2.4,1.2c0.9,0.5,1.8,1,3,1.7c2,1.2,3.9,2.3,5.7,3.3c0.6,0.3,1.1,0.6,1.7,0.9c1.4,0.7,2.8,1.5,4.1,2.3l-0.2-0.1
		c1.5,0.9,2.9,1.8,4.4,2.6c0.3,0.2,0.7,0.4,1,0.6c-0.4,0.5-0.8,1-1.2,1.5c-0.6,0.8-1.2,1.5-1.9,2.3c-0.4,0.5-0.8,1-1.2,1.5
		c-0.3,0.4-0.6,0.8-0.8,1.2c-1.6,1.7-3.2,3.4-4.8,5c-0.1,0.1-0.3,0.3-0.4,0.5c-2.8,2.5-5.8,5.1-9.3,8c-4,3.3-7.6,6.2-10.9,9
		c-3.5,3-7.3,6.1-12.1,9.8c-3.8,2.9-7.8,5.6-11.7,8.2l-1.9,1.3c-1.5,1-3,1.9-4.5,2.8c-1.1,0.5-2.1,1.1-3.2,1.6
		c-0.8,0.4-1.6,0.8-2.4,1.2c-1.4,0.5-2.7,1.1-4.1,1.6c-2.6,0.9-5.2,1.8-7.8,2.7c-2.5,0.9-4.9,2-7.2,3.1c-2.6,1.2-5.2,2.2-7.9,3.3
		c-2.7,1.1-5.3,2.2-8,3.3c0.1,0,0.2-0.1,0.4-0.1c-2.5,1-5.1,1.9-7.6,2.8c-2.4,0.9-4.8,1.6-7.2,2.4c-2.2,0.3-4.4,0.6-6.6,1
		c-2.3,0.4-4.6,0.9-7,1.3c-3.1,0.5-6.2,0.9-9.3,1.3c-3,0.4-6.1,0.7-9.1,1c-5.1,0.3-10.2,0.7-15.4,0.8c-1.7,0-3.4,0-5.1,0
		C217.1,437.7,214,437.6,210.8,437.5z"/>
</g>
<g id="Vector_layer_22_">
	<path class="st7" d="M280.4,196.1c0-6.9,3.8-12.5,8.5-12.5s8.5,5.6,8.5,12.5c0,6.9-3.8,12.5-8.5,12.5
		C284.2,208.6,280.4,203,280.4,196.1z"/>
</g>
<g id="Vector_layer_21_">
	<path class="st8" d="M293.2,201.6c-0.3-0.3-0.3-0.8-0.1-1.2c0,0,0,0,0-0.1c0-0.1,0.1-0.2,0.1-0.2c0-0.1,0.1-0.1,0.1-0.2
		c0.1-0.2,0.2-0.4,0.3-0.6c0,0,0-0.1,0-0.1c0.1-0.2,0.1-0.3,0.2-0.5c0.1-0.3,0.1-0.6,0.2-0.9c0.1-0.3,0.1-0.5,0.2-0.8
		c0-0.1,0-0.1,0-0.2c0-0.7,0-1.4,0-2.1c0-0.1,0-0.2,0-0.3c0-0.1-0.1-0.3-0.1-0.4c0,0,0-0.1,0-0.1v0c0,0,0,0,0,0c0,0,0,0,0-0.1
		c0,0,0,0,0,0c-0.1-0.2-0.1-0.5-0.2-0.7c-0.1-0.4-0.2-0.8-0.4-1.2c-0.1-0.2-0.2-0.4-0.3-0.5c0,0,0,0.1,0,0.1
		c-0.1-0.2-0.2-0.3-0.3-0.5c-0.1-0.2-0.2-0.3-0.3-0.5c-0.1-0.1-0.1-0.2-0.2-0.3c-0.1-0.1-0.2-0.3-0.3-0.4c0,0,0,0,0,0.1
		c0,0,0-0.1-0.1-0.1l0,0l0,0c-0.2-0.3-0.5-0.6-0.8-0.9c-0.1-0.1-0.2-0.2-0.3-0.2c-0.1,0-0.1-0.1-0.2-0.1c-0.1,0-0.1-0.1-0.2-0.1
		c0,0,0,0,0,0c0,0,0,0,0,0l0,0c0,0,0,0,0,0l0,0c-0.1-0.1-0.2-0.1-0.2-0.1c0,0,0,0,0.1,0.1c-0.1-0.1-0.2-0.1-0.3-0.2
		c-0.1,0-0.2-0.1-0.3-0.1c-0.1,0-0.2-0.1-0.3-0.1c-0.4,0-0.7-0.4-0.7-0.8s0.3-0.8,0.7-0.8l0,0c0,0,0,0,0,0c0.3,0,0.5,0.1,0.8,0.2
		c0.3,0.1,0.6,0.3,0.9,0.5c0,0,0,0,0,0c0,0,0,0,0,0c0,0,0,0,0,0s0,0,0,0c0,0,0,0,0,0c0,0,0,0,0,0c0,0,0,0,0,0c0.3,0.2,0.7,0.4,1,0.8
		c0.3,0.3,0.6,0.7,0.9,1.1l0,0c0.2,0.2,0.3,0.4,0.5,0.6c0.1,0.2,0.2,0.4,0.4,0.6c0.1,0.2,0.2,0.4,0.3,0.5c0.5,0.9,0.7,1.8,1,2.8v0
		c0,0,0,0,0,0c0.1,0.2,0.1,0.5,0.2,0.8c0.1,0.4,0.1,0.9,0.1,1.3c0,0.4,0,0.7,0,1.1c0,0.3,0,0.6,0,0.9c-0.1,0.5-0.2,0.9-0.3,1.4
		c-0.1,0.2-0.1,0.5-0.2,0.7c0,0.2-0.1,0.3-0.2,0.5c0,0,0,0.1,0,0.1l0,0c0,0,0,0,0,0c0,0,0,0.1,0,0.1c0,0,0,0,0-0.1
		c0,0.1-0.1,0.2-0.2,0.4c0,0,0,0,0,0c-0.1,0.1-0.1,0.2-0.2,0.4c-0.1,0.1-0.1,0.2-0.2,0.4c-0.1,0.1-0.1,0.2-0.2,0.4
		c-0.1,0.2-0.3,0.3-0.5,0.3C293.5,201.8,293.3,201.7,293.2,201.6z"/>
</g>
<g id="Vector_layer_20_">
	<path class="st7" d="M256.4,246.4c-0.4-0.4-0.5-1.2,0-1.7c0.3-0.3,0.8-0.5,1.2-0.7c0.5-0.2,1-0.3,1.5-0.5c0.6-0.2,1.2-0.3,1.7-0.5
		c0.8-0.2,1.5-0.4,2.3-0.7c0,0,0,0-0.1,0c0.4-0.1,0.8-0.3,1.2-0.4c0.2-0.1,0.4-0.2,0.6-0.3c0.1-0.1,0.2-0.2,0.4-0.3
		c0-0.1,0.1-0.1,0.1-0.2c0.1-0.2,0.3-0.3,0.4-0.5c0,0,0,0,0,0.1c0.5-0.7,0.8-1.4,1.2-2.1c0.5-0.8,0.9-1.6,1.3-2.4
		c0,0.1,0,0.1-0.1,0.1c0.6-1.4,1.2-2.7,1.9-4c0.7-1.3,1.3-2.6,2-3.9c0.1-0.2,0.2-0.3,0.2-0.5c0,0,0,0,0,0c0.2-0.5,0.5-1,0.7-1.4
		c0,0.1,0,0.1-0.1,0.1c0-0.1,0.1-0.2,0.1-0.3c0,0,0-0.1,0-0.1v0c0,0,0-0.1,0-0.1c0,0,0,0,0,0c1.2-2.5,2.6-4.9,3.9-7.4
		c0.7-1.3,1.3-2.5,2-3.8c0.7-1.3,1.4-2.5,2.1-3.8c0.8-1.4,1.5-2.8,2.2-4.3c0.3-0.6,0.5-1.2,0.8-1.8c0.2-0.6,1-0.9,1.6-0.6
		c0.6,0.2,0.9,1,0.6,1.6c-0.3,0.7-0.5,1.4-0.9,2.1c-0.3,0.6-0.7,1.3-1,1.9c-0.7,1.3-1.3,2.6-2,3.8c-0.7,1.3-1.4,2.5-2.1,3.8
		c-0.7,1.2-1.3,2.5-2,3.7c-1,2-2.1,3.9-3.1,5.9c0,0.1-0.1,0.2-0.1,0.2c0-0.1,0-0.1,0.1-0.1c0,0.1-0.1,0.2-0.1,0.3c0,0,0,0,0,0
		c-0.2,0.4-0.4,0.9-0.6,1.3c0,0,0,0,0-0.1c-0.8,1.6-1.6,3.2-2.4,4.8c0-0.1,0-0.1,0.1-0.1c-0.6,1.3-1.2,2.6-1.8,3.8
		c-0.6,1.2-1.3,2.4-2,3.7c-0.5,0.9-1.1,1.9-2,2.5c-1,0.7-2.1,1-3.2,1.3c-0.4,0.1-0.9,0.2-1.3,0.4c-0.4,0.1-0.8,0.2-1.1,0.3
		c-0.7,0.2-1.4,0.3-2,0.6c0,0,0.1,0,0.1-0.1c-0.3,0.1-0.5,0.2-0.8,0.3c0,0,0,0,0.1,0c0,0-0.1,0-0.1,0.1c-0.2,0.2-0.5,0.3-0.8,0.3
		C256.9,246.7,256.6,246.6,256.4,246.4z"/>
</g>
<g id="Vector_layer_19_">
	<path class="st7" d="M249.7,245.2c0-1.9,2.5-3.4,5.5-3.4c3,0,5.5,1.5,5.5,3.4s-2.5,3.4-5.5,3.4
		C252.2,248.6,249.7,247.1,249.7,245.2z"/>
</g>
</svg>
